<?xml version="1.0" encoding="UTF-8"?>
<svg xmlns="http://www.w3.org/2000/svg" viewBox="0 0 598.5 569.82">
  <defs>
    <style>
      .cls-1 {
        fill: #5c2f0c;
      }

      .cls-2 {
        fill: #faad80;
      }

      .cls-3 {
        fill: #fff;
      }

      .cls-4 {
        isolation: isolate;
      }

      .cls-5 {
        stroke-width: 6px;
      }

      .cls-5, .cls-6, .cls-7 {
        fill: none;
        stroke-linecap: round;
        stroke-linejoin: round;
      }

      .cls-5, .cls-7 {
        stroke: #fff;
      }

      .cls-8 {
        fill: #6f8194;
        opacity: .7;
      }

      .cls-8, .cls-9 {
        mix-blend-mode: darken;
      }

      .cls-9 {
        fill: #8f501a;
        opacity: .8;
      }

      .cls-10 {
        fill: #a73489;
      }

      .cls-11 {
        fill: #ff6767;
      }

      .cls-6 {
        stroke: #000;
      }

      .cls-6, .cls-7 {
        stroke-width: 3px;
      }

      .cls-12 {
        fill: #ff3d68;
      }
    </style>
  </defs>
  <g class="cls-4">
    <g id="tube-color">
      <path class="cls-12" d="M55.85,351.71c-.36-34.71,10.33-69.06,30.98-96.96s50.94-49.59,81.5-66.06c59.46-32.04,128.53-43.94,195.99-40.48,45.29,2.32,91.02,11.23,130.92,32.77,63.22,34.12,72.87,57.8,93.54,97.56,10.93,21.03,10.58,92.31-11.13,132.56-7.3,13.52-16.53,25.93-26.58,37.56-49.59,57.33-120.07,103.87-195.66,109.48-76.17,5.66-153.8-5.54-216.78-53.53-25.61-19.52-54.84-42.5-67.14-72.25-13.54-32.76-15.39-57-15.64-80.65Z"/>
      <path class="cls-3" d="M227.62,337.53c-1.85-2.99-10.88-1.56-16.59-.61s-15.5,3.84-20.56,6.66c-23.12,12.9-39.76,29.87-54.37,51.96-14.6,22.09-22.24,49.36-17.96,75.49,.93,5.7,2.44,11.37,5.3,16.39,3.85,6.76,9.92,11.95,16.06,16.71,43.89,34.07,98.53,54.06,154.04,56.35-10.51-8.43-17.38-20.76-21.2-33.68s-4.8-26.5-5.21-39.97c-.21-6.87,7.93-46.7,14.72-59.89,3.89-10.94,11.04-20.3,18.17-29.47-37.54-6.24-55.55-32.82-72.4-59.94Z"/>
      <path class="cls-3" d="M55.42,345.39c2.03-45.68,24.79-89.47,59.03-119.78,2.94-2.6,5.97-5.12,9.36-7.08,4.7-2.71,9.78-5.47,14.88-7.32,20.27-7.37,45.45-5.86,61.95,3.37,32.28,18.06,33.11,44.41,33.11,44.41,0,0-4.4,2.35-4.87,3.76-.34,1.02-.97,1.93-1.59,2.81-2.62,3.76-5.23,7.53-7.85,11.29-9.09-6.27-15.68-5.95-23.92-7.74s-17.76-.35-26.2-.21c-9.9,.17-15.3,2.82-24.92,5.18-13.99,3.43-24.84,10.85-39.11,19.74-12.22,7.62-18.71,15.23-29.58,26.87-8.55,9.16-15.3,17.31-20.29,24.68Z"/>
      <path class="cls-3" d="M374.34,384.77c22.67,8.3,42.07,27.38,53.1,48.86,11.03,21.48,18,43.03,15.97,67.09-.99,11.72-7.65,27.55-13.55,37.72,37.64-10.07,68.74-35.99,97.77-61.99,9.7-8.68,21.64-16.48,24.6-29.15,2.57-11.01-.39-32.35-4.45-42.9-8.88-23.09-21.01-39.67-40.11-55.38-19.11-15.71-48.02-21.78-72.17-16.45-1.13,.25-2.28,.54-3.26,1.14-1.54,.95-4.14,1.46-5.1,3-13.2,21.12-30.47,37.67-52.8,48.06Z"/>
      <path class="cls-3" d="M419.33,235.51c6.63-26.39,26.21-49.19,51.3-59.72,2.24-.94,4.59-1.8,7.02-1.78,1.96,.02,3.86,.6,5.71,1.25,10.54,3.68,20.49,8.9,29.58,15.37,14.08,10.03,12.12,7.91,16.09,11.88,6.57,6.57,12.83,10.34,19.63,17.15,5.41,5.41,10.52,9.47,15.23,15.5,21.13,27,25.03,48.37,25.03,48.37-15.4-29.46-46.35-49.55-72.75-50.93-9.7-.51-19.38,1.13-28.96,2.78-8.89,1.52-17.87,3.08-26.21,6.54s-17.65,9.05-22.12,16.55c-.26,.43-10.18-17.08-19.57-22.95Z"/>
      <path class="cls-8" d="M334.88,204.61c-25.54,1.01-50.56,7.68-73.24,19.47-12.95,6.73-26.49,15.15-36.34,24.75-7.74,7.54-14.83,15.89-19.77,25.5-4.46,8.67-7.08,18.22-8.22,27.91-2.57,21.91,2.6,44.65,14.38,63.3,11.79,18.65,30.12,33.07,51.01,40.14,11.81,4,24.27,5.69,36.64,7.23,6.66,.83,13.39,1.63,20.08,1.04,6.42-.57,28.66-4.4,34.81-6.33,23.14-7.25,37.09-13.93,57.25-31.41,1.83-1.59,3.7-3.36,5.57-5.26,18.17-18.41,29.86-44.4,35.13-67.71,2.63-11.64,3.39-27.68,.21-39.18-.84-3.03-1.83-5.9-2.99-8.14-1.08-2.08-3.04-5.66-6.12-9.41-10.95-13.29-25.12-23.56-41.04-30.12-.51-.21-1.03-.42-1.56-.63-20.74-8.3-43.03-12.02-65.35-11.17-.15,0-.31,.01-.46,.02Z"/>
      <path class="cls-8" d="M303.92,428.79c-7.35,15.39-10.89,32.37-10.26,49.22,.3,8.15,1.56,16.3,.81,24.42-.76,8.12-3.68,16.72-10.65,21.6-6.45,4.52-15.15,5.88-20.98-1.14-7.18-8.66-10.47-30.16-9.3-42.24,.24-2.45,.49-4.96,1.68-7.15,1.61-2.96,4.69-4.93,7.58-6.87,16.02-10.74,29.77-24.44,41.12-37.85Z"/>
      <path class="cls-8" d="M213.74,368.62c-18.02,11.51-32.2,28.91-39.85,48.87-2.68,7-2.43,11.96-7.69,17.3-2.81,2.85-6.35,4.86-9.97,6.57-6.16,2.92-13.5,5.05-19.64,2.1-7.03-3.38-9.71-12.13-9.7-19.94,.02-11.38,4.1-22.4,9.35-32.5,10.37-19.95,26.62-38.05,48.07-44.82,8.69-2.74,13.58,.35,19.4,7.36,3.68,4.44,6.63,9.15,10.03,15.06Z"/>
      <path class="cls-8" d="M85.89,454.16c63.39,52.32,113.66,77.19,180.42,85.18,51.19,6.12,102.93-2.49,153.02-14.71,18.46-4.51,70.41-34.18,84.8-46.59,53.72-46.35,55.42-53.2,87.39-102.59-17.52,64.83-39.82,101.85-101.63,146.01-21.96,15.69-53.42,31.78-81.05,39.02-41.62,10.91-80.29,11.36-118.84,6-42.62-5.92-72.91-15.85-110.72-36.4-35.04-19.04-61.82-36.94-93.39-75.91Z"/>
    </g>
    <g id="tube-line">
      <path class="cls-6" d="M437.42,255.01c10.8,23.16,5.89,51.09-5.94,73.74-21.59,41.33-66.25,69.59-113.21,70.21-19.39,.04-38.45-7.14-54.04-18.67-15.59-11.52-27.82-27.22-36.74-44.44-8.33-16.07-13.93-34.79-9.05-52.22,5.91-21.12,25.66-35.33,45.54-44.58,30.76-14.32,65.07-20.95,98.96-19.1,14.58,.79,29.22,3.17,42.7,8.78s26.25,14.4,31.79,26.28Z"/>
      <path class="cls-6" d="M368.64,147.99c-77.23-9.05-177.81,17.4-239.46,64.78-32.58,25.04-60.89,58.64-69.02,98.91-6.62,32.78-9.07,50.55,2.1,92.8,4.27,16.13,7.23,29.16,22.1,48.15,19.47,24.86,25.71,28.86,38.18,39.21,30.17,25.05,64.52,45.6,102.09,56.88,35.5,10.65,73.09,12.83,110.11,10.96,31.37-1.58,63.09-6.16,91.68-19.18,22.35-10.18,45.09-19.18,64.62-34.07,20.3-15.46,40.67-31.05,57.08-50.58,15.28-18.2,21.15-26.8,27.97-40.99,8.6-17.89,18.77-47.19,19.5-67.03,1.09-29.21,3.8-41.01-8.19-73.08-1.33-3.57-3.5-7.95-6-12.53-9.64-17.65-22.36-33.43-37.34-46.84-5.78-5.17-11.51-10.17-15.03-12.88-56.68-43.72-96.59-47.04-160.39-54.51Z"/>
      <path class="cls-6" d="M374.34,384.77c18.73,7.68,35.09,21.05,46.34,37.87,10.93,16.35,18.4,32.97,21.24,52.43,3.26,22.31,1.75,47.16-12.94,64.27"/>
      <path class="cls-6" d="M290.21,558.59c-15.51-16.23-23.02-38.96-23.83-61.39-.81-22.43,5.61-43.04,13.19-64.16,4.66-12.99,10.42-26.08,20.45-35.56"/>
      <path class="cls-6" d="M426.3,338.01c3.52-6.28,11.64-8.12,18.83-8.46,23.84-1.14,47.79,7.41,66.36,22.42,18.57,15,31.61,35.58,38.21,58.52,3.94,13.71,5.55,28.59,1.1,42.15"/>
      <path class="cls-6" d="M438.73,258.04c7.61-8.84,17.99-14.99,29.01-18.79s22.69-5.38,34.33-6.11c6.73-.42,13.5-.57,20.2,.22,15.98,1.88,31.13,9.16,43.34,19.65s21.52,25.45,27.98,40.19"/>
      <path class="cls-6" d="M227.62,337.53c-20.63-4.85-41.51,6.57-58.15,19.69-20.65,16.28-37.73,38.43-47.27,62.94s-9.16,53.79,5.31,75.76"/>
      <path class="cls-6" d="M220.29,275.36c-29.83-11.73-64.41-8.28-93.3,5.6s-52.39,37.44-69.89,64.3"/>
      <path class="cls-6" d="M227.62,243.57c-7.11-18.02-24.53-30.84-43.43-35.1-18.9-4.25-41.73-.02-59.46,7.8"/>
    </g>
    <g id="man-color">
      <path class="cls-2" d="M320.42,49.53c-25.32,3.53-49.95,20.07-57.78,44.4-17.78-4.9-35.02-.61-51.64,7.38s-29.86,23.39-33.76,41.41c-4.07,18.81,2.12,38.76,13.09,54.58,10.97,15.81,26.34,28.03,42.18,38.95-8.51,12.31-14.67,26.25-18.03,40.83-49.31-2.71-97.9,35.92-121.05,81.02-6.72-6.36-13.65-17.2-7.04-23.67,1.91-1.87,4.56-2.75,6.75-4.28,7.56-5.3,6.94-18.25-.48-23.74-8.86-6.55-24.27-4.93-27.92,6.82-.62,2.01-2.2,3.65-4.2,4.3-3.33,1.08-5.59-1.17-7.8-3.02-3.66-3.07-8.38-5.49-13.08-4.65s-8.66,6.16-6.64,10.5c-2.92,.87-7.11-1.1-11.16-1.1-5.43,4.98-10.39,16.34-14.53,22.39-7.57,11.08,6.29,5.63,5.29,18.75-.36,4.67,4.03,13.52,7.34,16.83,4.12,4.12,10.34,7.35,14.43,11.49,6.57,6.65,6.11,15.62,5.38,24.94-1.69,21.67,6.43,36.71,22.66,41.81,13.68,4.3,28.29-3.71,38.51-13.77s18.25-22.5,30.07-30.6c15.69-10.75,36.07-12.51,52.21-22.57,15.47-9.65,24.58-24.04,33.3-40.05,3.63,7.65,7.64,9.95,11.27,17.6-2.23-2.44-10.31,12.16-14.58,24.35-7.55,24.9-10.78,30.66-15.66,55.49-9.84-10.07-12.51-9.74-12.02-22.66,.13-3.43-10.57-6.21-9.7-9.45,1.32-4.93,.17-7.71-1.51-10.56-3.73-6.32-12.11-7.75-17.75-3.06s-5.93,8.42-7.53,14.33c-2.59,9.5,6.94,9.16,1.16,17.14-12.44,17.16-14.86,21.58-11.88,33.22,3.39,13.21,14.76,17.17,28.33,28.63,5.5,4.64,1.3,16.08,2.44,23.19,1.94,12.1,14.65,22.95,26.66,25.44,12,2.49,25.18-5.41,31.78-15.74,6.39-10,5.1-21.49,10.53-32.05,6.11-11.89,19.56-18.42,29.97-26.81,18.21-14.67,32.88-33.71,42.42-55.06,1.72-3.86,3.2-13.75,7.38-14.36,5.07-.74,8.57-.52,19.74-2.16,33.92-4.98,62.74-27.51,79.35-47.63,23.79-28.81,31.57-68.79,19.66-93.36,1.79-1.28,3.59-2.56,14.32-8.31s29.17-16.25,42.96-31.69c13.79-15.44,25.65-37.38,21.92-57.74-2.74-14.92-13.25-30.08-26.3-37.82s-29.75-10.18-44.16-5.43c-.48,8.01-4.98,27.85-9.97,27.32s-15.11-4.45-18.65,.42c6.43-9.9,8.74-24.33,5.49-35.68-3.25-11.35-10.12-21.39-18.67-29.54-24.27-23.14-62.68-29.79-83.08-26.95Z"/>
      <path class="cls-10" d="M231.33,285.13c11.87,7.73,22.22,17.77,30.3,29.4,2.48,3.57,4.85,7.78,3.97,12.04,11.01-9.62,26.05-13.72,40.67-13.69,25.69,.06,47.83,12.04,63.35,32.51,3.06,4.04,7.07,9.84,9.34,14.38,2.87,5.73,7.01,11.36,5.74,17.65,16.19-11.05,25.87-21.37,30.14-26.69,1.01-1.26,2.32-2.88,.93-3.71-2.08-1.25-6.16-2.49-8.12-3.5-6.2-3.22-12.4-6.44-18.6-9.67-20.87-10.85-41.89-21.75-64.38-28.63-8.39-2.56-16.31-6.34-24.67-9-8.18-2.6-16.78-4.03-25.02-6.39-14.1-4.04-28.93-5.51-43.67-4.7Z"/>
      <path class="cls-1" d="M422.76,123.62c.31,6.6-1.87,13.29-6.01,18.44,3.2-1.76,6.68-3.26,10.34-3.33s7.53,1.53,9.31,4.72c1.67-4.63,3.33-9.26,5-13.89-2.1-.39-3.94-1.76-5.23-3.47s-2.08-3.74-2.68-5.8c-2.14,4.01-7.89,5.53-10.73,3.32Z"/>
    </g>
    <g id="man-line">
      <path class="cls-6" d="M217.79,468.95c-6.51-9.85-11.76-7.42-15.07-5.04s-2.86,4.51-2.87,7.19c-.02,3.24,1.98,11.17,10.96,12.17"/>
      <path class="cls-6" d="M410.4,149.18c3.11-3.53,6.59-6.9,10.9-8.8s9.61-2.09,13.52,.53c7.5,5.02,6.07,16.39,2.89,24.84-2.24,5.95-5.05,11.95-9.91,16.05s-12.23,5.82-17.68,2.54c-2.74,11.71-10.66,21.77-20.36,28.88s-21.11,11.55-32.65,14.93c-11.3,3.31-23.08,5.71-34.82,4.67-7.83-.69-15.46-2.9-22.85-5.57-9.43-3.4-18.72-7.65-26.37-14.13s-13.59-15.42-14.82-25.37c-1.85-14.9,6.79-29.29,6.68-44.31-.08-10.5-4.45-20.58-4.83-31.08-.56-15.33,7.58-29.96,17.28-39.19,10.1-11.99,24.38-20.04,39.5-24.17s31.08-4.5,46.67-2.85c16.11,1.7,32.21,5.62,46.33,13.57,14.12,7.95,26.18,20.2,31.94,35.34s4.57,33.24-4.84,46.43"/>
      <path class="cls-6" d="M416.7,141.81c10.13-14.39,8.67-34.8-.34-49.92-9.01-15.12-24.33-25.54-40.47-32.56-18.26-7.94-38.38-12.12-58.21-10.27"/>
      <path class="cls-6" d="M262.64,93.93c-21.57-6.06-46.09-.9-63.02,13.77-16.93,14.67-25.56,38.51-21.41,60.52,2.76,14.59,10.65,27.83,20.44,39s21.46,20.5,33.07,29.77"/>
      <path class="cls-6" d="M251.26,217.75c-18.17,14.03-31.18,34.59-36.09,57.01"/>
      <path class="cls-6" d="M449.36,113.68c17.85-4.58,37.95,.94,50.95,14s18.45,33.17,13.8,51.01c-4.1,15.73-12.8,28.11-24.7,39.2-15.33,14.28-32.96,26.64-51.61,36.19"/>
      <path class="cls-6" d="M439.29,160.64c5.74-4.98,12.01-6.9,19.45-8.44"/>
      <path class="cls-6" d="M247.33,142.05c7.12,.74,13.7,5.41,16.76,11.88"/>
      <path class="cls-6" d="M312.65,177.72c-1.34-3.03-5.12-4.6-8.31-3.73s-5.59,3.86-6.09,7.13c-.55,3.59,2.1,8,5.69,7.43-3.69-.95-7.72,1.92-8.55,5.64s1.2,7.73,4.41,9.78,7.35,2.31,11.02,1.29"/>
      <path class="cls-6" d="M99.46,385.22c.11-8.93-2.53-17.87-7.47-25.31-2.92-4.39-6.66-8.36-8.43-13.33s-.75-11.54,3.96-13.92c1.43-.73,3.06-.99,4.5-1.69,3.21-1.55,5.1-5.06,5.69-8.58,1.29-7.72-3.36-16.02-10.61-18.95s-16.36-.2-20.81,6.23c-3.58,5.19-4.24,12.16-8.49,16.81-6.63,7.26-18.32,5.61-27.61,8.82-8.37,2.89-15.02,10.32-16.97,18.95-1.95,8.64,.86,18.2,7.17,24.41,4.59,4.51,10.84,7.33,14.55,12.59,5.65,7.99,3.78,18.78,3.74,28.57-.04,12.37,4.15,25.85,14.71,32.28,10.15,6.18,23.63,4.12,33.9-1.86,10.27-5.98,18.11-15.28,26.04-24.13,7.93-8.85,16.5-17.68,27.49-22.22,6.98-2.89,14.58-3.88,21.86-5.9,24.4-6.75,45.07-25.77,53.83-49.53,3.26,5.48,6.52,10.96,9.78,16.44"/>
      <path class="cls-6" d="M93.43,358.1c20.99-38.53,57.67-68.21,99.74-80.68,6.33-1.88,11.05-1.1,17.62-.49,6.21,.58,12.11,3.05,17.55,6.1,16.58,9.26,29.9,24.24,37.15,41.79"/>
      <path class="cls-6" d="M197.43,447.98c5.88-28.56,12.14-58.04,28.99-81.84,6.23-8.8,13.76-16.59,21.51-24.07,8.23-7.95,16.87-15.7,27.05-20.93,21.09-10.85,47.51-9.48,68.36,1.82,20.85,11.3,36.08,31.77,42.89,54.49"/>
      <path class="cls-6" d="M322.12,379.46c-8.35,39.92-35.51,73.79-67.62,98.94-6.79,5.32-14.09,10.63-17.83,18.41-3.52,7.34-3.37,15.93-6.16,23.59-5.32,14.62-22.38,23.87-37.54,20.36-15.16-3.52-26.4-19.34-24.74-34.81,.34-3.16,1.13-6.43,.12-9.44-1.4-4.15-5.71-6.44-9.51-8.63-7.15-4.13-13.84-9.5-17.91-16.68s-5.15-16.41-1.28-23.71c3.52-6.63,10.86-11.68,11.13-19.18,.1-2.95-.96-5.79-1.48-8.69-1.12-6.25,.56-13.17,5.2-17.51s12.34-5.42,17.49-1.71,6.29,12.23,1.68,16.6"/>
      <path class="cls-6" d="M185.93,434.17c.71-4.11,.86-8.53-.98-12.27s-6.19-6.5-10.21-5.37c-2.1,.59-3.82,2.12-5.2,3.8-2.45,2.98-4.13,6.68-4.31,10.54s1.23,7.85,4.11,10.43"/>
      <path class="cls-6" d="M208.51,461.62c.49-2.74-1.46-5.26-3.33-7.33-2.07-2.29-4.45-4.65-7.5-5.1-1.31-.19-2.67,0-3.92,.43-4.6,1.62-7.52,6.98-6.37,11.72s6.19,8.18,11.02,7.52"/>
      <path class="cls-6" d="M195.82,448.69c1.1-2.54,.04-5.52-1.54-7.8-1.46-2.11-3.42-3.96-5.81-4.89s-5.26-.85-7.39,.59c-1.84,1.24-2.96,3.31-3.67,5.41-1.23,3.65-1.41,7.76,.11,11.3s4.9,6.37,8.74,6.67"/>
      <path class="cls-6" d="M61.16,317.35c-3.17,.26-6.23-1.14-8.96-2.77s-5.34-3.55-8.38-4.51-6.69-.73-8.94,1.52c-1.37,1.37-2.03,3.31-2.31,5.24-.6,4.09,.41,8.4,2.75,11.81,1.34,1.96,3.3,3.71,5.66,3.94"/>
      <path class="cls-6" d="M32.01,320.67c-3.21-1.55-7.03-3.1-10.17-1.42-2.3,1.23-3.5,3.94-3.63,6.55-.27,5.09,4.24,8.67,9.11,10.19"/>
      <path class="cls-6" d="M18.45,328.2c-1.71-.85-3.88-.31-5.28,.98s-2.1,3.2-2.29,5.1c-.45,4.47,2.49,9.51,6.96,9.91"/>
      <path class="cls-6" d="M11.25,338.8c-3.35,.89-5.74,4.51-5.25,7.94s3.8,6.23,7.27,6.15"/>
      <path class="cls-6" d="M428.25,152.23c-1.55-1.17-3.77-.56-5.49,.33-4.63,2.42-8.35,6.92-8.98,12.11"/>
      <path class="cls-6" d="M437.18,254.51c10.8,23.16,6.14,51.6-5.7,74.25-21.59,41.33-66.25,69.59-113.21,70.21"/>
    </g>
    <g id="glass-line">
      <path class="cls-1" d="M265.5,124.89c-5.67,1.22-9.7,6.96-9.9,12.75s2.92,11.36,7.32,15.13c5.2,4.45,12.17,6.65,19.01,6.44s13.53-2.76,19.05-6.8c3.41-2.5,6.51-5.72,7.75-9.76s.16-8.99-3.34-11.36c-1.25-.85-2.72-1.32-4.16-1.78-12.03-3.86-24.82-6.97-35.75-4.62Z"/>
      <path class="cls-1" d="M348.72,128.62c-8.3-.32-17.46,.73-21.97,9.33-.2,.38-.36,.78-.49,1.19-2.79,9.09,3.16,15.36,8.89,20.65,3.16,2.91,6.5,5.82,10.54,7.3,5.35,1.95,11.3,1.15,16.8-.33,6.65-1.8,13.3-4.78,17.62-10.16s5.53-12.94,1.98-18.7c-.29-.48-.68-.9-1.12-1.24-1.08-.84-2.3-1.53-3.74-2.09-.19-.07-.38-.16-.55-.25-3.83-2.03-7.35-3.84-11.63-4.61-5.21-.94-8.41-1.08-12.63-1.08-.49,0-3.22,.02-3.71,0Z"/>
      <path class="cls-6" d="M256.25,138.62c.13-3.31,1.14-6.58,3.16-9.2,4.27-5.55,10.59-6.1,16.58-5.95,6.66,.17,13.3,1.1,19.74,2.79,5.93,1.55,12.48,4.55,13.99,10.49,.83,3.24-.11,6.74-1.86,9.59-1.61,2.63-6,6.67-6.67,7.28-.06,.05-.11,.1-.18,.15-.36,.29-2.56,1.57-5.23,3.09-10,5.7-22.6,5.12-31.65-2-4.66-3.67-8.18-8.89-7.9-16.24Z"/>
      <path class="cls-6" d="M310.43,142.07c.44-1.23,1.64-2.06,2.9-2.4s2.59-.27,3.89-.17c2.94,.21,6.13,.63,8.18,2.75"/>
      <path class="cls-6" d="M386.14,143.61c9.88,.18,19.76,0,29.62-.54"/>
      <path class="cls-6" d="M325.55,143.43c.15-5.29,1.65-7.33,5.03-9.95,2.87-2.22,6.27-3.64,9.86-4.12,9.53-1.27,19.28-.9,28.69,1.09,6.69,1.41,13.82,4.05,15.54,11.93,.55,2.52,.39,5.16-.36,7.63-2.05,6.72-7.64,11.35-13.71,14.43-4.35,2.21-9.05,3.74-13.87,4.53-.39,.06-.82,.11-1.28,.14-5.36,.37-10.7-1.1-15.23-3.98-2.19-1.39-4.48-2.97-5.95-4.31-.87-.79-1.71-1.7-2.49-2.61-3.03-3.6-5.2-7.87-6.02-12.5-.15-.84-.24-1.63-.22-2.27Z"/>
      <path class="cls-6" d="M229.69,283.8c33.68,.95,65.09,9.63,96.66,21.42s61.62,27.25,91.17,43.44"/>
    </g>
    <g id="hat-flower">
      <g>
        <path id="hat-color" class="cls-11" d="M278.06,34.51c-2.79-.8-6.03,.23-7.84,2.5s-2.1,5.65-.69,8.2c-2.51-.02-4.73,1.89-5.76,4.18s-1.05,4.9-.85,7.4c-2.12-.62-4.46-1.18-6.58-.88-3.03,.42-5.17,3.15-5.07,6.2,.15,4.37,5.38,6.27,8.57,4.2-1.6,2.16-1.9,5.21-.77,7.65-2.31,1.11-3.19,4.3-2.07,6.61s3.86,3.59,6.42,3.33,4.84-1.88,6.32-3.86c.48,3.55,5.26,5.15,8.48,3.59s5-5.08,6.01-8.52c1.04,2.64,4.69,3.45,7.25,2.22s4.14-3.87,5.14-6.53c.51,3.64,4.07,6.58,7.74,6.39s6.92-3.46,7.07-7.13c-.45,1.07,.42,2.22,1.3,2.97,2.87,2.44,6.86,3.78,10.5,2.81s6.61-4.57,6.2-8.32c6.33,4.31,14.94,10.43,20.07-4.37-.83,1.37-.04,3.25,1.27,4.17s3.12,4.18,4.71,4.36c4,.46,8.7-2.49,10.64-6.07-.74,3.34-.01,7.13,2.42,9.54s6.68,3,9.43,.99c1.37-.27,2.66-.95,3.61-2.08-1.63,.42-3.2,1.07-4.65,1.94-.88,.53-1.55,1.39-1.67,2.41-.29,2.49,2.46,3.38,4.59,3.18,2.5-.23,4.91-1.3,6.76-2.98-2.24,.27-4.39,1.61-5.38,3.64s-.62,4.71,1.04,6.23c1.57,1.43,3.9,1.65,6.02,1.5,2.47-.18,4.91-.77,7.22-1.67-.14,2.89,.16,5.81,.9,8.61,.26,.98,.6,1.99,1.37,2.65,.67,.57,1.58,.78,2.46,.89,3.21,.4,6.55-.37,9.26-2.13-1.59-.02-2.37,1.9-2.72,3.45-.67,2.98-1.33,6.15-.29,9.02,1.89,5.23,8.76,7.08,14.09,5.52-1.3,.47-2.59,.95-3.89,1.42,.93,3.26,3.89,5.84,7.24,6.32s6.92-1.17,8.84-4.09c-.17,3.3,1.55,6.64,4.33,8.42,0,0,.47,.06,2.61,.88,5.81,.17,11.52-3.66,13.57-9.1,.57-1.52,.87-3.23,.29-4.75s-2.27-2.67-3.83-2.21c1.24,.13,2.52-.06,3.77-.93,4.63-2.22,8.13-6.67,9.12-11.72,.21-1.07,.04-2.2-.5-3.14-1.33-2.33-2.49-1.8-4.29-3.8,.84-1.31,1.66-3.44,3.08-5.21,.93-3.06-2.33-6.57-4.82-8.78l-4.01-1.53c2.11-2.8,3.78-7.75,1.72-10.59l-.34-.38c-.5-.55-1.12-.97-1.76-1.35-.26-.15-.52-.4-.67-.78-1.29-.84-2.33-.35-3.81-1.38-1.61-.06-3.22-.13-5.06-.22,2.31-.44,6.27-3.02,6.84-5.55-.06-4.23-2.47-5.64-6.54-6.77,2.94-2.85,4.25-9.42,2.65-13.19s-9.16-5.81-12.7-3.75c-.61-3.39-4-5.73-7.41-6.25s-6.86,.38-10.19,1.27c2.99-2.35,4.35-8.93,.95-10.63s-10.37,.55-13.78,2.23c.91-3.78-.96-8.68-4.84-8.41s-7.32,2.9-10.3,5.39c1.1-2.78-.03-4.27-2.37-7.28-1.47-1.88-3.75-2.97-6.13-3.13-4.73-.31-8.83,2.31-12.68,4.84,1.67-3.29-.48-7.62-3.87-9.07s-7.43-.5-10.49,1.56-5.33,5.07-7.49,8.06c1.23-3.34-2.84-6.67-6.37-6.19s-6.24,3.25-8.67,5.86c-.32-3.43-4.3-5.34-7.74-5.33-6.08,.02-11.93,4.23-13.76,9.97-.79-1.15-2.32-1.62-3.71-1.43s-2.63,.91-3.75,1.74c-2.76,2.04-5.13,5.44-4.11,8.72-2.95-2.4-7.41-2.34-10.72-.48s-5.58,5.21-6.91,8.77c-.11,.31-.22,.66-.08,.95s.65,.39,.07-.81Z"/>
        <path id="hat-line" class="cls-6" d="M269.84,44.46c-1.86-2.21-1.96-5.71-.23-8.03s5.12-3.2,7.77-2.04c.97-7.98,11.09-13.26,18.19-9.5,.84-3.35,1.77-6.85,4.15-9.35s6.72-3.49,9.27-1.17c.76-4.15,4.24-7.67,8.38-8.47s8.69,1.18,10.93,4.75c2.49-3.01,6.1-5.39,10.01-5.26s7.76,3.49,7.42,7.38c1.15-4.13,3.98-7.79,7.77-9.79,2.95-1.55,6.59-2.06,9.63-.68s5.16,4.89,4.34,8.12c3.72-2.63,8.32-4.54,12.78-3.6s8.24,5.64,6.9,9.99c2.97-2.24,6.27-4.59,9.98-4.44s7.3,4.31,5.43,7.52c3.85-1.64,8.34-2.95,12.12-1.15s5.19,8.06,1.5,10.04c3.42-1.17,7.01-2.37,10.57-1.76s6.98,3.68,7.15,7.3c3.81-2.12,9.08-.21,11.2,3.59s1.3,8.83-1.42,12.23c-.33,.41-.72,.82-1.23,.96s-1.16-.13-1.31-.45c3.38-.56,6.99,1.82,7.81,5.14s-1.28,7.11-4.53,8.18c3.58-.86,7.61,.76,9.6,3.85s1.8,7.43-.45,10.33c3.51,.29,6.67,3.05,7.44,6.49s-.93,7.28-3.98,9.04c2.96-.54,5.67,2.36,5.99,5.35s-1.09,5.88-2.63,8.46c-1.91,3.19-4.79,6.55-8.5,6.28,1.73,.57,2.6,2.65,2.35,4.45-.4,2.88-2.97,5.14-4.52,7.09-2.41,3.04-6.43,4.52-10.15,3.44-5.54-1.6-6.02-7.3-6.09-12.13-.13,3.9-3.52,7.42-7.41,7.69s-7.74-2.76-8.39-6.6c-4.74,.89-9.91-1.88-11.78-6.33s-.24-10.08,3.71-12.85c-3.47,2.91-8.99,3.52-12.52,.69s-3.76-9.18,.04-11.65c-3.98,2.37-8.79,4.84-13.01,2.02-1.57-1.05-2.66-2.69-3.22-4.5-1.27-4.14,0-8.29,1.61-12.1-2.81,2.76-6.07,4.26-10,4.01-.51-.03-1.22-.18-1.9-.36-1.4-.36-2.66-1.15-3.56-2.29-.02-.02-.03-.03-.03-.04-1.49-2.2-1.83-4.15-1.56-6.8,.21-2.01,2.07-3.35,.94-5.92,.49,2.78-1.89,7.8-4.62,9.22s-4.75,2.21-9.02-.56c-2.58-1.67-4.01-7.98-2.1-10.39-.15,4.2-2.23,13.7-10.74,13.42-.33-.01-7.62-.75-9.78-5.67-.23-.53-.71-.81-.84-1.18,1.8,4.6-2.18,10.17-7.1,10.65s-9.62-3.47-10.79-8.27c.72,4.32-3.13,8.81-7.52,8.75s-8.11-4.65-7.28-8.95c-.58,3.62-2.16,7.52-5.53,8.95s-8.22-1.74-6.95-5.18c.35,3.12-.09,6.44-1.86,9.05s-5.03,4.3-8.1,3.65-5.47-4.05-4.53-7.05c.18,4.74-5.65,8.55-9.92,6.49s-4.92-8.99-1.1-11.8"/>
        <g id="hat-flower-color">
          <path class="cls-12" d="M322.16,52.75c-2.79-3.57-2.3-9.27,1.07-12.3,.9-.81,2-1.45,3.2-1.63,2.34-.34,4.7,1.24,5.66,3.4s.66,4.73-.38,6.85c2.73-.83,5.94-.25,7.95,1.77s2.52,5.5,.89,7.84-5.39,2.96-7.49,1.04c.74,1.09,.24,2.56-.33,3.75-1.21,2.52-2.95,5.19-5.69,5.72-1.93,.38-4.05-.53-5.11-2.19s-.99-3.97,.16-5.56c-2.4,1.08-5.07,1.92-7.64,1.36s-4.9-2.93-4.59-5.54c.27-2.25,2.3-3.88,4.37-4.81,2.46-1.11,5.78-1.39,7.94,.31Z"/>
          <path class="cls-12" d="M289.34,26.28c-1.86,.08-3.72-.04-5.55-.35-.55-.09-1.11-.21-1.54-.56-.55-.45-.77-1.18-.91-1.88-1.46-7.22,2.75-15.18,9.53-18.04,1.1-.47,2.31-.81,3.49-.62,1.14,.19,2.14,.85,3.06,1.54,1.87,1.4,3.65,3.05,4.64,5.17s1.04,4.81-.37,6.67c2-1.12,4.15-2.08,6.44-2.31s4.74,.37,6.35,2.01c2.04,2.07,2.3,5.55,.88,8.1s-4.26,4.12-7.16,4.37c3.93,2.23,5.46,7.78,3.38,11.79s-7.34,5.97-11.6,4.47c-3.87-1.36-6.69-6.1-4.8-9.75-1.84,4.17-6.28,7.04-10.83,7.02-1.01,0-2.03-.15-2.93-.6-1.72-.86-2.73-2.73-3.19-4.6-.8-3.26-.18-6.93,1.98-9.5s5.92-3.81,9.14-2.94Z"/>
          <path class="cls-12" d="M263.98,58.3c-2.74-3.31-2.43-8.76,.75-11.64s8.77-2.55,11.49,.77,1.86,8.98-1.79,11.23c1.04-1.58,2.95-2.56,4.84-2.48s3.71,1.21,4.61,2.88c1.06,1.95,.83,4.44-.3,6.34s-3.04,3.26-5.12,4.03c-1.46,.54-3.07,.81-4.58,.42s-2.88-1.54-3.22-3.06c1.14,3.27,.12,7.3-2.7,9.31s-7.27,1.48-9.24-1.37-.57-7.51,2.76-8.48c-2.16-1.66-5.27,.82-7.93,.23-2.48-.55-3.59-3.8-2.61-6.15s3.38-3.79,5.8-4.55c2.36-.74,5.65-.49,7.22,2.52Z"/>
          <path class="cls-12" d="M358.32,34.04c-1.55,1.08-3.75,1.02-5.36,.02s-2.61-2.83-2.8-4.71c-.44-4.32,3-8.06,6.6-10.5,1.45-.98,3.01-1.87,4.73-2.18,2.63-.46,5.47,.62,7.13,2.72s2.06,5.11,1.01,7.56c2.56-3.11,7.26-4.33,10.91-2.63s5.77,6.26,4.49,10.08-5.94,6.19-9.71,4.79c1.4-.59,2.67,1.18,2.89,2.68,.74,5.01-3.31,10.22-8.36,10.73-1.39,.14-2.88-.06-4-.89-.88-.65-1.46-1.62-1.97-2.59-1.02-1.91-1.85-4.34-.65-6.15-1.55,2.66-4.22,4.64-7.21,5.36-.56,.14-1.15,.23-1.72,.12-.75-.15-1.39-.64-1.92-1.2-1.9-2.01-2.56-5.11-1.65-7.72s3.36-4.62,7.59-5.49Z"/>
          <path class="cls-12" d="M377.74,68.54c-1.49-1.58-1.8-3.99-1.31-6.11,.57-2.5,2.22-4.8,4.56-5.85s5.33-.66,7.12,1.18,2,5.08,.27,6.96c1.57-1.83,4.15-2.47,6.56-2.53,3.39-.08,7.32,1.27,8.29,4.52,.55,1.84-.06,3.92-1.33,5.36s-3.12,2.3-5.01,2.61c1.39-.04,2.42,1.3,2.85,2.62,1.21,3.75-.94,8.26-4.62,9.66-.99,.38-2.09,.55-3.13,.35-1.77-.35-3.2-1.75-4.03-3.36s-1.16-3.42-1.47-5.2c-1.57,2.38-4.75,3.56-7.49,2.78s-4.83-3.46-4.91-6.31,1.84-5.64,3.67-6.68Z"/>
          <path class="cls-12" d="M422.61,43.56c-3.17-.97-4.93-4.75-4.26-7.99s3.31-5.83,6.35-7.14c1.7-.73,3.65-1.12,5.41-.55,2.56,.83,4.14,3.6,4.21,6.29s-1.15,5.26-2.73,7.44c2.37-2.39,5.86-3.61,9.2-3.23,.71,.08,1.44,.24,2.02,.65,.67,.47,1.08,1.23,1.35,2,1.7,4.78-2.07,10.66-7.12,11.12,2.09,.58,3.52,2.75,3.58,4.92s-1.07,4.26-2.7,5.7c-2.5,2.21-6.23,2.97-9.34,1.78s-5.41-4.34-5.47-7.67c-.56,2.62-3.63,4.27-6.23,3.61s-4.46-3.24-4.65-5.92,1.1-5.32,3.06-7.15,4.53-2.9,7.31-3.86Z"/>
          <path class="cls-12" d="M434.14,73.98c-.23-3.59,.39-7.51,2.95-10.04s7.46-2.77,9.43,.24c1.08,1.65,1.04,3.84,.36,5.7s-1.93,3.43-3.2,4.94c2.1-1.73,5.15-2.36,7.66-1.29s4.19,3.95,3.6,6.61c-.29,1.3-1.05,2.45-1.96,3.42-1.43,1.53-3.33,2.71-5.42,2.88s-4.33-.81-5.28-2.68c.25,2.35-1.31,4.62-3.34,5.82s-4.47,1.52-6.84,1.6c-1.28,.04-2.67-.02-3.66-.84-1.05-.88-1.33-2.45-.95-3.76s1.31-2.41,2.34-3.31c-2.09,1-4.76,.62-6.5-.91s-2.43-4.15-1.68-6.34c.51-1.49,1.6-2.74,2.87-3.67,1.7-1.24,3.87-1.97,5.92-1.49s3.8,2.41,3.71,3.13Z"/>
          <path class="cls-12" d="M429.02,99.83c-.35-2.06,.72-4.18,2.3-5.56s3.6-2.13,5.62-2.7c1.46-.42,3.09-.74,4.44-.04,2.31,1.19,2.34,4.61,1.14,6.92-1.34,2.57-3.81,4.53-6.62,5.25,.84-.64,2.08-.51,2.95,.08s1.42,1.56,1.79,2.54c1.05,2.77,.88,6.05-.73,8.55s-4.7,4.03-7.63,3.52-5.39-3.21-5.36-6.18c-2.53,3.7-7.7,4.19-12.18,4.32-.76,.02-1.6,.02-2.16-.49-.38-.34-.56-.86-.68-1.36-1.06-4.54,2.46-9.61,7.09-10.2-2.34-1.01-3.86-3.57-3.81-6.11s1.6-4.97,3.8-6.24c.82-.47,1.75-.81,2.69-.77,2.04,.09,3.6,1.84,4.67,3.58,1.05,1.7,1.88,3.53,2.67,4.89Z"/>
        </g>
        <g id="hat-flower-line">
          <path class="cls-6" d="M289.48,26.05c-2.67-1.04-6.26-.33-7.95-2.65-.63-.87-.81-1.99-.86-3.07-.13-3.19,.77-6.42,2.55-9.08,2.79-4.18,8.18-6.84,13-5.42s7.95,7.58,5.4,11.92c2.66-2.54,6.86-3.44,10.21-1.91s5.44,5.54,4.49,9.09-5.05,6.01-8.56,4.91c4.29,1.92,6.52,7.49,4.75,11.85s-7.26,6.78-11.68,5.16-7.03-7.02-5.56-11.49c-.19,3.58-2.85,6.9-6.31,7.82s-7.45-.66-9.3-3.73-1.37-7.36,1.15-9.91c2.46-2.5,6.22-3.12,8.66-3.49Z"/>
          <path class="cls-6" d="M359.8,33.74c-2.98,.32-6.56,.39-8.32-2.04-.71-.99-.98-2.24-.97-3.46,.03-5.72,5.51-10.07,11.05-11.49,2.29-.59,4.89-.8,6.88,.49,2.9,1.88,3.21,6.07,2.27,9.39,1.92-2.1,4.82-3.3,7.66-3.03s5.51,2.05,6.73,4.62c1.4,2.96,.69,6.78-1.68,9.04s-6.22,2.78-9.11,1.23c2.01-.16,3.87,1.49,4.38,3.44s-.12,4.06-1.22,5.74c-2.22,3.37-6.72,5.31-10.5,3.91s-5.91-6.49-3.7-9.86c-.17,3.18-3.56,5.22-6.7,5.78-1.51,.27-3.17,.31-4.45-.54-1.74-1.16-2.17-3.59-1.76-5.65,.92-4.67,5.65-8.26,9.45-7.57Z"/>
          <path class="cls-6" d="M264.88,59.22c-3.13-2.76-3.72-8.03-1.12-11.31s8.04-3.83,11.14-1.03,2.99,8.44-.32,10.99c1.82-2.34,5.73-2.42,7.89-.38s2.44,5.62,.95,8.19-4.46,4.07-7.42,4.18c-2.7,.1-5.9-1.51-5.91-4.22,1.75,4.26,.74,10.1-3.45,12.01-3.32,1.51-7.75-.39-8.94-3.84s1.11-7.68,4.66-8.54c-2.27,.93-4.65,1.88-7.11,1.69s-4.97-1.91-5.2-4.36c-.21-2.26,1.54-4.25,3.44-5.48,3.38-2.18,8.57-2.57,11.39,2.1Z"/>
          <path class="cls-6" d="M422.37,44.2c-1.32-2.88-5.08-4.87-4.61-8,.15-.98,.73-1.84,1.36-2.61,2.3-2.77,5.58-4.7,9.11-5.39,1.91-.37,4.11-.31,5.52,1.03,.98,.92,1.4,2.29,1.52,3.63,.28,3.04-.88,6.19-3.07,8.32,1.98-2.33,4.98-3.77,8.04-3.87,1.1-.04,2.22,.1,3.21,.58,3.09,1.5,3.69,6.06,1.8,8.93s-5.48,4.2-8.91,4.44c2.59-.39,5.09,1.89,5.5,4.48s-.88,5.23-2.79,7.03c-2.69,2.55-6.82,3.68-10.27,2.33s-5.78-5.39-4.73-8.95c-.95,3.48-5.88,4.84-8.82,2.75s-3.57-6.56-1.84-9.73c2.04-3.75,7-5.59,8.98-4.97Z"/>
          <path class="cls-6" d="M378,67.9c-1.97-1.48-2.43-4.44-1.44-6.69s3.18-3.81,5.52-4.58c1.97-.65,4.51-.63,5.7,1.07,.41,.59,.6,1.3,.73,2,.31,1.79,.21,3.64-.28,5.38,1.26-2.67,4.67-3.51,7.62-3.49,1.71,0,3.49,.22,4.94,1.14,2.23,1.41,3.21,4.43,2.4,6.94s-3.24,4.36-5.86,4.64c1.58,.09,2.86,1.48,3.23,3.01s0,3.16-.57,4.62c-1.06,2.69-3.1,5.26-5.94,5.81-2.47,.48-5.11-.77-6.54-2.84s-1.7-4.82-.99-7.23c-1.61,2.55-4.78,4.1-7.76,3.57s-5.47-3.26-5.52-6.28,2.56-5.9,4.74-7.07Z"/>
          <path class="cls-6" d="M428.31,100.21c.46-5.54,6.16-10.05,11.65-9.23,.76,.11,1.54,.33,2.13,.82,.77,.64,1.11,1.67,1.24,2.66,.56,4.31-2.8,8.75-7.1,9.39,2.93,.03,5.47,2.65,5.85,5.56s-1.15,5.87-3.47,7.66c-2.18,1.69-5.22,2.45-7.78,1.42s-4.27-4.12-3.31-6.71c-2.23,4.37-7.7,6.79-12.43,5.51-.87-.23-1.74-.6-2.37-1.24-1.04-1.05-1.27-2.68-1.08-4.15,.49-3.78,3.61-7.06,7.35-7.74,1.14-.21,2.62,0,3.01,1.09-3.89,.29-7.81-2.94-7.93-6.83s4.01-7.43,7.77-6.41c3.38,.92,5.23,4.59,6.47,8.18Z"/>
          <path class="cls-6" d="M434.05,73.82c-1.17-2.85-.6-6.34,1.43-8.67s5.4-3.37,8.39-2.6c.75,.2,1.5,.51,2.05,1.06,.72,.72,1.03,1.77,1.16,2.78,.39,3.16-.84,6.47-3.18,8.62,2.4-2.74,7.27-2.64,9.64,.13s1.74,7.51-1.2,9.67-7.56,1.37-9.71-1.57c.81,1.53,.44,3.5-.57,4.9s-2.56,2.34-4.16,3.02c-2.85,1.22-6.54,1.61-8.74-.58-2.4-2.4-1.11-7.26,2.17-8.14-2.57,2.9-7.88,2.4-10.06-.8s-.91-8.12,2.43-10.09,8.05-.87,10.36,2.27Z"/>
          <path class="cls-6" d="M322.73,52.53c-1.68-2.25-3.45-5.03-2.48-7.66,.49-1.32,1.59-2.31,2.71-3.18,2.53-1.95,6.21-3.53,8.76-1.59,1.35,1.03,1.95,2.84,1.82,4.53s-.92,3.27-1.89,4.66c2.8-1.26,6.37-.91,8.63,1.17s2.86,5.88,1.05,8.36-5.94,2.96-8.06,.74c.77,2.48,.28,5.31-1.27,7.39s-4.13,3.35-6.72,3.32c-1.04-.01-2.14-.25-2.91-.94-.89-.8-1.21-2.05-1.28-3.24-.11-1.82,.29-3.68,1.14-5.3-2.43,1.94-5.86,2.9-8.71,1.68s-4.55-5.04-2.89-7.67c.84-1.33,2.3-2.13,3.76-2.71,1.52-.61,3.17-1.07,4.79-.86s3.23,1.21,3.57,1.28Z"/>
        </g>
        <g id="hat-highlight">
          <path class="cls-7" d="M316.97,17.13c2.39-1,5.21-.34,7.38,1.07s3.83,3.46,5.44,5.48c-.61-1.96-.08-4.23,1.32-5.72s3.64-2.15,5.63-1.67"/>
          <path class="cls-7" d="M395.46,30.4c1.54-2.1,3.99-3.58,6.6-3.67s5.27,1.34,6.39,3.7c.45,.96,.65,2.03,.6,3.09-.08,1.56-.69,3.08-1.71,4.26-.1-.25-.21-.49-.31-.74"/>
          <path class="cls-7" d="M294,48.43c-2.75-.38-5.54,2.08-5.5,4.86,.01,1.02,.35,2.01,.82,2.92,.75,1.46,1.9,2.76,3.4,3.43s3.37,.62,4.67-.38c-.53,1.39-.15,3.09,.93,4.12s2.79,1.34,4.16,.75"/>
          <path class="cls-7" d="M415.48,66.94c-.75-.73-1.52-1.47-2.49-1.87s-2.18-.36-2.94,.37c-.4,.38-.62,.9-.8,1.42-.46,1.33-.7,2.83-.15,4.13s2.1,2.24,3.41,1.72c-2.1,.84-3.37,3.34-2.82,5.53s2.86,3.79,5.1,3.54"/>
          <path class="cls-7" d="M286.56,15.37l-.14,3.51"/>
          <path class="cls-7" d="M424.82,35.1c1.35-1.45,3.52-2.08,5.43-1.57"/>
        </g>
      </g>
    </g>
    <g id="shadow">
      <path class="cls-9" d="M152.38,405.73c-2.34,3.89-1.29,8.94,.67,13.03,2.77,5.78,7.24,10.74,12.93,13.96-.99,6.13,4.59,12.43,10.97,12.34-3.18,6.73,2.33,15.84,9.77,16.16,.99,5.6,7.4,9.57,12.86,7.96-1.15,3.59,.1,7.82,3.01,10.22-6.47-1.28-12.57-4.34-17.48-8.74-6.82-6.12-11.11-14.52-17.12-21.43-6.01-6.91-15.14-12.55-23.98-10.15,4.72-2.26,5.54-8.61,5-13.82s-1.68-10.92,3.38-19.54Z"/>
      <path class="cls-9" d="M155.51,486.62c4.62,4.27,11.14,5.72,17.39,6.46,6.25,.74,12.68,.95,18.5,3.36,4.64,1.92,9.16,6.53,7.72,11.34-2.34,.97-4.67,1.95-7.01,2.92-4.27,1.78-8.83,3.8-11.22,7.76-2.73,4.52-1.87,10.26-.93,15.45-2.31-1.06-4.4-2.59-6.1-4.48-6.33-7.02-6.46-17.49-5.9-26.92,.28-4.69,0-10.55-12.45-15.89Z"/>
      <path class="cls-9" d="M75.81,303.04c-4.64,3.19-7.52,8.8-7.41,14.43s3.2,11.12,7.95,14.14c-10.81,1.33-21.71,1.95-32.61,1.85-3.42-.03-6.86-.13-10.23,.45-8.74,1.49-16.49,7.81-19.71,16.07-.27,.68-.54,1.43-1.15,1.83-1.28,.85-3.08-.51-3.24-2.04s.7-2.95,1.54-4.23c1.05-1.62,2.09-3.23,3.14-4.85,2-3.09,4.59-6.52,8.27-6.59,2.62-4.61,9.03-6.59,13.99-4.74-.21-1.81,1.49-3.35,3.26-3.79s3.62-.13,5.45-.14c4.39-.03,8.72-2.08,11.52-5.45,.44-.53,.87-1.11,1.49-1.41,.83-.39,1.82-.21,2.68-.5,2.04-.68,2.36-3.33,2.96-5.39,1.2-4.13,5.08-7.34,12.09-9.65Z"/>
      <path class="cls-9" d="M13.75,356.67c-1.17,5.35,.59,11.26,4.5,15.1,7.13,7.01,18.74,6.09,27.84,10.24,3.92,1.79,7.46,4.66,9.4,8.5s2.07,8.72-.26,12.34c-2.34,3.64-6.61,5.48-9.79,8.41-4.77,4.4-6.88,11.49-5.28,17.78-2.25-11.78,1.34-25.01-4.87-35.28-3.61-5.97-9.9-9.7-15.06-14.4s-9.53-11.71-6.48-22.7Z"/>
      <path class="cls-9" d="M212.57,357.2c-.32-4.58,.44-9.23,2.2-13.46,.78-1.88,1.84-3.77,3.59-4.8,1.6-.95,3.58-1.05,5.42-.8,5.82,.76,11.08,4.87,13.23,10.34,.37,.95,.66,2.01,.37,3-.27,.92-1,1.61-1.68,2.28-3.38,3.37-6.12,7.37-8.06,11.73-2.96-1.91-4.24-5.49-5.63-8.72s-3.48-6.67-6.91-7.43c-.54,.82-1.07,1.64-2.53,7.88Z"/>
      <path class="cls-9" d="M316.16,398.22c3.3-4.84,5.05-10.71,4.95-16.57-.04-2.15-.3-4.4,.45-6.38,1.89-4.97,9.05-4.81,11.09,.1,.05,.12,.1,.24,.15,.35,3.98,9.48,15.17,14.24,24.74,10.46,2.56-1.01,4.73-2.15,6.64-2.91,20.53-8.21,36.5-20.07,50.35-42.02,15.45-24.49,24.59-53.12,22.03-86.3,9.13,19.4,7.49,38.95,.8,56.68-2.91,7.71-5.4,17.13-9.81,24.1-12.01,18.96-28.63,34.03-47.59,46.03-18.96,12.01-41.67,18.68-63.78,16.46Z"/>
      <path class="cls-9" d="M443.29,130.95c-2.19,3.33-2.02,7.91,0,11.34s5.68,5.73,9.57,6.58c3.58,.79,7.93,.76,9.99,3.79-8.43-1.47-17.45,.75-24.23,5.98,.7-5.17-.09-10.52-2.23-15.27-.27-.59-.56-1.2-.53-1.85,.03-.65,.38-1.23,.73-1.78,1.19-1.92,2.39-3.84,6.7-8.79Z"/>
      <path class="cls-9" d="M371,222.34c-32.53,20.32-77.95,17.24-107.43-7.3-1.46-1.22-3.04-2.55-4.94-2.67-1.92-.12-3.68,1.03-5.23,2.17-8.26,6.05-15.69,13.25-22,21.32-2.66-1.7-17.77-14.5-20.43-16.2,15.83,5.15,27.25-.14,34.65-5.76,6.38-4.85,13.28-10.55,14.33-18.5,7.4,12.3,8.28,15.94,17.46,21.71,18.56,11.66,58.34,24.92,93.6,5.24Z"/>
      <path class="cls-9" d="M259.75,120.58c-2.37,12.04-14.52,21.32-26.76,20.44,8.14-.24,16.33,1.58,23.6,5.25-.25-3.2-.32-6.41-.2-9.62,.09-2.51,.51-5.4,2.63-6.74,.95-.6,2.11-.79,3.13-1.27s1.96-1.49,1.77-2.6c-2.35-.28-4.34-2.44-4.16-5.45Z"/>
    </g>
    <g id="highlight">
      <path class="cls-3" d="M201.45,285.88c-.48-3.06-4.59-2.24-6.85-1.61-2.69,.75-6.67,4.93-2.05,5.86,1.4,.28,3.56-.15,4.8-.85,.63-.36,1.32-.61,2.93-1.73"/>
      <path class="cls-7" d="M278.06,90.73c-5.65,4.43-9.06,11.59-8.95,18.77"/>
      <path class="cls-7" d="M273.95,129.86c-3.64-1.43-8.17-.06-10.41,3.14"/>
      <path class="cls-7" d="M343.04,134.2c-1.27,.1-2.54,.2-4.23,.38-2.41,.77-4.54,2.37-5.95,4.47l-.21,.21"/>
      <path class="cls-3" d="M504.17,145.72c-.03,.1-.06,.21-.09,.33-.41,1.93,.34,3.92,1.79,5.25,.54,.5,.99,.9,1.03,.9,.55-.08,.82-.72,.93-1.48,.24-1.53-.23-3.09-1.19-4.31-.35-.44-.72-.87-1.03-1.13-.5-.41-1.25-.17-1.45,.44Z"/>
      <path class="cls-3" d="M196.22,122.28c-.88,1.15-.4,2.81,.96,3.3,.83,.3,1.69,.35,2.47-.12,1.37-.83,2.19-3.39,1.18-4.64-.74-.92-3.27-.3-4.61,1.45Z"/>
      <path class="cls-3" d="M380.32,165.54c-1.42-.04-4.77,.22-5.47,1.45-.38,.65-.06,2.51,.53,2.97,.37,.29,2.03,.31,3.42,.28s2.47-.9,2.88-2.16c.24-.74,.4-1.51,.22-2.03-.14-.39-1.16-.5-1.58-.51Z"/>
      <path class="cls-3" d="M267.67,161.47c-.84-.05-1.73,.05-2.41,.56s-1.03,1.5-.62,2.23c.35,.63,1.14,.89,1.86,.88,.74-.01,1.51-.28,1.98-.85s.59-1.46,.14-2.06-1.46-.7-.96-.76Z"/>
      <path class="cls-3" d="M292.69,324.69c-.51-.06-2.26-.36-2.78-.32-1.8,.12-2.33-.22-4.03,1.48-.81,.81-1.6,1.4-1.81,2.53-.19,1.02,.63,1.96,1.53,2.47,1.83,1.03,4.25,.92,5.98-.29,1.41-.98,2.3-2.63,2.41-4.34,.05-.77-.53-1.45-1.31-1.53h0Z"/>
      <path class="cls-3" d="M472.38,253.14c4.02,11.32,5.37,23.63,4.59,35.75-.74,12.14-3.65,24.15-8.26,35.42-4.63,11.27-10.92,21.8-18.41,31.29-7.46,9.52-16.07,18.08-25.57,25.39,8.09-8.85,15.72-17.98,22.43-27.71,6.68-9.74,12.47-20.03,16.93-30.88,4.45-10.83,7.52-22.23,9.02-33.89,1.46-11.66,1.28-23.56-.72-35.38Z"/>
      <path class="cls-5" d="M412.3,393.82c-5.82,6.29-14.05,9.69-22.12,12.56-18.93,6.72-38.54,11.49-58.44,14.21"/>
      <path class="cls-3" d="M474.39,262.99c-5.82,7.52-8.05,23.28-5.1,32.32,.02,.05,.04,.11,.06,.17,1.39,3.5,6.21,3.95,8.31,.82,.6-.9,1.11-1.77,1.42-2.5,3.63-8.75,1.8-24.9-4.68-30.81Z"/>
    </g>
  </g>
</svg>