<svg id="visual" viewBox="0 0 900 600" width="900" height="600" xmlns="http://www.w3.org/2000/svg" xmlns:xlink="http://www.w3.org/1999/xlink" version="1.1"><rect x="0" y="0" width="900" height="600" fill="#c4cf9f"></rect><path d="M0 111L16.7 125.3C33.3 139.7 66.7 168.3 100 172.5C133.3 176.7 166.7 156.3 200 158.8C233.3 161.3 266.7 186.7 300 182.2C333.3 177.7 366.7 143.3 400 125.7C433.3 108 466.7 107 500 113.8C533.3 120.7 566.7 135.3 600 159.3C633.3 183.3 666.7 216.7 700 208.7C733.3 200.7 766.7 151.3 800 153.7C833.3 156 866.7 210 883.3 237L900 264L900 601L883.3 601C866.7 601 833.3 601 800 601C766.7 601 733.3 601 700 601C666.7 601 633.3 601 600 601C566.7 601 533.3 601 500 601C466.7 601 433.3 601 400 601C366.7 601 333.3 601 300 601C266.7 601 233.3 601 200 601C166.7 601 133.3 601 100 601C66.7 601 33.3 601 16.7 601L0 601Z" fill="#76ba99"></path><path d="M0 217L16.7 224.8C33.3 232.7 66.7 248.3 100 246.5C133.3 244.7 166.7 225.3 200 232C233.3 238.7 266.7 271.3 300 283.5C333.3 295.7 366.7 287.3 400 264C433.3 240.7 466.7 202.3 500 187.7C533.3 173 566.7 182 600 198.8C633.3 215.7 666.7 240.3 700 232.7C733.3 225 766.7 185 800 180.7C833.3 176.3 866.7 207.7 883.3 223.3L900 239L900 601L883.3 601C866.7 601 833.3 601 800 601C766.7 601 733.3 601 700 601C666.7 601 633.3 601 600 601C566.7 601 533.3 601 500 601C466.7 601 433.3 601 400 601C366.7 601 333.3 601 300 601C266.7 601 233.3 601 200 601C166.7 601 133.3 601 100 601C66.7 601 33.3 601 16.7 601L0 601Z" fill="#54ae9e"></path><path d="M0 199L16.7 205.8C33.3 212.7 66.7 226.3 100 240.7C133.3 255 166.7 270 200 286.8C233.3 303.7 266.7 322.3 300 323C333.3 323.7 366.7 306.3 400 299.5C433.3 292.7 466.7 296.3 500 292.5C533.3 288.7 566.7 277.3 600 273.8C633.3 270.3 666.7 274.7 700 274.7C733.3 274.7 766.7 270.3 800 267.7C833.3 265 866.7 264 883.3 263.5L900 263L900 601L883.3 601C866.7 601 833.3 601 800 601C766.7 601 733.3 601 700 601C666.7 601 633.3 601 600 601C566.7 601 533.3 601 500 601C466.7 601 433.3 601 400 601C366.7 601 333.3 601 300 601C266.7 601 233.3 601 200 601C166.7 601 133.3 601 100 601C66.7 601 33.3 601 16.7 601L0 601Z" fill="#32a1a3"></path><path d="M0 252L16.7 271.5C33.3 291 66.7 330 100 342.7C133.3 355.3 166.7 341.7 200 340.3C233.3 339 266.7 350 300 337.5C333.3 325 366.7 289 400 284.5C433.3 280 466.7 307 500 319.5C533.3 332 566.7 330 600 316.5C633.3 303 666.7 278 700 268C733.3 258 766.7 263 800 271.5C833.3 280 866.7 292 883.3 298L900 304L900 601L883.3 601C866.7 601 833.3 601 800 601C766.7 601 733.3 601 700 601C666.7 601 633.3 601 600 601C566.7 601 533.3 601 500 601C466.7 601 433.3 601 400 601C366.7 601 333.3 601 300 601C266.7 601 233.3 601 200 601C166.7 601 133.3 601 100 601C66.7 601 33.3 601 16.7 601L0 601Z" fill="#0d93a6"></path><path d="M0 368L16.7 366.2C33.3 364.3 66.7 360.7 100 352.3C133.3 344 166.7 331 200 341C233.3 351 266.7 384 300 395.3C333.3 406.7 366.7 396.3 400 396.3C433.3 396.3 466.7 406.7 500 406.2C533.3 405.7 566.7 394.3 600 390C633.3 385.7 666.7 388.3 700 394C733.3 399.7 766.7 408.3 800 394.7C833.3 381 866.7 345 883.3 327L900 309L900 601L883.3 601C866.7 601 833.3 601 800 601C766.7 601 733.3 601 700 601C666.7 601 633.3 601 600 601C566.7 601 533.3 601 500 601C466.7 601 433.3 601 400 601C366.7 601 333.3 601 300 601C266.7 601 233.3 601 200 601C166.7 601 133.3 601 100 601C66.7 601 33.3 601 16.7 601L0 601Z" fill="#0084a6"></path><path d="M0 445L16.7 439C33.3 433 66.7 421 100 417.8C133.3 414.7 166.7 420.3 200 418C233.3 415.7 266.7 405.3 300 406.8C333.3 408.3 366.7 421.7 400 419.7C433.3 417.7 466.7 400.3 500 391.3C533.3 382.3 566.7 381.7 600 390.3C633.3 399 666.7 417 700 425.7C733.3 434.3 766.7 433.7 800 422.5C833.3 411.3 866.7 389.7 883.3 378.8L900 368L900 601L883.3 601C866.7 601 833.3 601 800 601C766.7 601 733.3 601 700 601C666.7 601 633.3 601 600 601C566.7 601 533.3 601 500 601C466.7 601 433.3 601 400 601C366.7 601 333.3 601 300 601C266.7 601 233.3 601 200 601C166.7 601 133.3 601 100 601C66.7 601 33.3 601 16.7 601L0 601Z" fill="#0074a4"></path><path d="M0 414L16.7 415C33.3 416 66.7 418 100 424.8C133.3 431.7 166.7 443.3 200 443.8C233.3 444.3 266.7 433.7 300 436.8C333.3 440 366.7 457 400 468.7C433.3 480.3 466.7 486.7 500 482.7C533.3 478.7 566.7 464.3 600 456C633.3 447.7 666.7 445.3 700 444.2C733.3 443 766.7 443 800 445.8C833.3 448.7 866.7 454.3 883.3 457.2L900 460L900 601L883.3 601C866.7 601 833.3 601 800 601C766.7 601 733.3 601 700 601C666.7 601 633.3 601 600 601C566.7 601 533.3 601 500 601C466.7 601 433.3 601 400 601C366.7 601 333.3 601 300 601C266.7 601 233.3 601 200 601C166.7 601 133.3 601 100 601C66.7 601 33.3 601 16.7 601L0 601Z" fill="#0063a0"></path><path d="M0 509L16.7 508C33.3 507 66.7 505 100 504.2C133.3 503.3 166.7 503.7 200 499.8C233.3 496 266.7 488 300 486.3C333.3 484.7 366.7 489.3 400 493C433.3 496.7 466.7 499.3 500 496.7C533.3 494 566.7 486 600 483C633.3 480 666.7 482 700 483C733.3 484 766.7 484 800 481.3C833.3 478.7 866.7 473.3 883.3 470.7L900 468L900 601L883.3 601C866.7 601 833.3 601 800 601C766.7 601 733.3 601 700 601C666.7 601 633.3 601 600 601C566.7 601 533.3 601 500 601C466.7 601 433.3 601 400 601C366.7 601 333.3 601 300 601C266.7 601 233.3 601 200 601C166.7 601 133.3 601 100 601C66.7 601 33.3 601 16.7 601L0 601Z" fill="#005298"></path><path d="M0 562L16.7 556.2C33.3 550.3 66.7 538.7 100 535.8C133.3 533 166.7 539 200 538.2C233.3 537.3 266.7 529.7 300 524.2C333.3 518.7 366.7 515.3 400 522C433.3 528.7 466.7 545.3 500 546.5C533.3 547.7 566.7 533.3 600 525C633.3 516.7 666.7 514.3 700 517.2C733.3 520 766.7 528 800 528C833.3 528 866.7 520 883.3 516L900 512L900 601L883.3 601C866.7 601 833.3 601 800 601C766.7 601 733.3 601 700 601C666.7 601 633.3 601 600 601C566.7 601 533.3 601 500 601C466.7 601 433.3 601 400 601C366.7 601 333.3 601 300 601C266.7 601 233.3 601 200 601C166.7 601 133.3 601 100 601C66.7 601 33.3 601 16.7 601L0 601Z" fill="#233e8b"></path></svg>