<svg width="448" height="512" viewBox="0 0 448 512" fill="none" xmlns="http://www.w3.org/2000/svg">
<g clip-path="url(#clip0_315_2139)">
<path d="M384 352L384 416C384 433.67 369.67 448 352 448L96.0001 448C78.3301 448 64.0001 433.67 64.0001 416L64.0001 352C64.0001 334.33 49.6701 320 32.0001 320C14.3301 320 5.84549e-05 334.33 6.15444e-05 352L7.27345e-05 416C8.20049e-05 469.02 42.9801 512 96.0001 512L352 512C405.02 512 448 469.02 448 416L448 352C448 334.33 433.67 320 416 320C398.33 320 384 334.3 384 352ZM201.4 9.37494L73.4 137.375C60.89 149.885 60.91 170.135 73.4 182.625C85.9 195.125 106.15 195.125 118.65 182.625L192 109.3L192 320C192 337.69 206.31 352 224 352C241.69 352 256 337.69 256 320L256 109.3L329.38 182.68C341.88 195.18 362.13 195.18 374.63 182.68C387.13 170.18 387.13 149.93 374.63 137.43L246.63 9.42993C234.1 -3.12507 213.9 -3.12507 201.4 9.37494Z" fill="white"/>
</g>
<defs>
<clipPath id="clip0_315_2139">
<rect width="448" height="512" fill="white"/>
</clipPath>
</defs>
</svg>
