<svg width="480" height="481" viewBox="0 0 480 481" fill="none" xmlns="http://www.w3.org/2000/svg">
<ellipse rx="38.5272" ry="38.5491" transform="matrix(0.950795 -0.309819 0.309425 0.950924 186.65 181.961)" fill="black"/>
<ellipse rx="25.6848" ry="25.6994" transform="matrix(0.950795 -0.309819 0.309425 0.950924 187.526 81.0069)" fill="black"/>
<ellipse cx="186.512" cy="14.3543" rx="14.2684" ry="14.2784" transform="rotate(-0.0364473 186.512 14.3543)" fill="black"/>
<ellipse cx="186.799" cy="466.713" rx="14.2684" ry="14.2784" transform="rotate(-0.0364473 186.799 466.713)" fill="black"/>
<ellipse rx="14.2693" ry="14.2774" transform="matrix(0.950795 -0.309819 0.309425 0.950924 461.944 179.808)" fill="black"/>
<ellipse rx="14.2693" ry="14.2774" transform="matrix(0.950795 -0.309819 0.309425 0.950924 17.985 180.091)" fill="black"/>
<ellipse rx="25.6848" ry="25.6994" transform="matrix(0.950795 -0.309819 0.309425 0.950924 390.199 179.221)" fill="black"/>
<ellipse rx="25.6848" ry="25.6994" transform="matrix(0.950795 -0.309819 0.309425 0.950924 390.14 85.211)" fill="black"/>
<ellipse rx="25.6848" ry="25.6994" transform="matrix(0.950795 -0.309819 0.309425 0.950924 89.1371 179.413)" fill="black"/>
<ellipse rx="25.6848" ry="25.6994" transform="matrix(0.950795 -0.309819 0.309425 0.950924 89.0773 85.4029)" fill="black"/>
<ellipse rx="25.6848" ry="25.6994" transform="matrix(0.950795 -0.309819 0.309425 0.950924 187.729 400.058)" fill="black"/>
<ellipse rx="38.5272" ry="38.5491" transform="matrix(0.950795 -0.309819 0.309425 0.950924 186.724 299.107)" fill="black"/>
<ellipse rx="38.5272" ry="38.5491" transform="matrix(0.950795 -0.309819 0.309425 0.950924 292.298 181.894)" fill="black"/>
<ellipse rx="25.6848" ry="25.6994" transform="matrix(0.950795 -0.309819 0.309425 0.950924 293.175 80.94)" fill="black"/>
<ellipse cx="292.161" cy="14.2874" rx="14.2684" ry="14.2784" transform="rotate(-0.0364473 292.161 14.2874)" fill="black"/>
<ellipse cx="292.448" cy="466.646" rx="14.2684" ry="14.2784" transform="rotate(-0.0364473 292.448 466.646)" fill="black"/>
<ellipse rx="14.2693" ry="14.2774" transform="matrix(0.950795 -0.309819 0.309425 0.950924 462.015 291.18)" fill="black"/>
<ellipse rx="14.2693" ry="14.2774" transform="matrix(0.950795 -0.309819 0.309425 0.950924 18.0557 291.463)" fill="black"/>
<ellipse rx="25.6848" ry="25.6994" transform="matrix(0.950795 -0.309819 0.309425 0.950924 390.259 272.031)" fill="black"/>
<ellipse rx="25.6848" ry="25.6994" transform="matrix(0.950795 -0.309819 0.309425 0.950924 390.317 364.84)" fill="black"/>
<ellipse rx="25.6848" ry="25.6994" transform="matrix(0.950795 -0.309819 0.309425 0.950924 89.1963 272.222)" fill="black"/>
<ellipse rx="25.6848" ry="25.6994" transform="matrix(0.950795 -0.309819 0.309425 0.950924 89.2553 365.032)" fill="black"/>
<ellipse rx="25.6848" ry="25.6994" transform="matrix(0.950795 -0.309819 0.309425 0.950924 293.378 399.991)" fill="black"/>
<ellipse rx="38.5272" ry="38.5491" transform="matrix(0.950795 -0.309819 0.309425 0.950924 292.373 299.04)" fill="black"/>
</svg>
