<svg width="480" height="481" viewBox="0 0 480 481" fill="none" xmlns="http://www.w3.org/2000/svg">
<g clip-path="url(#clip0_303_2157)">
<path d="M198.578 218.618C218.809 212.026 229.869 190.27 223.282 170.025C216.694 149.779 194.953 138.711 174.722 145.304C154.491 151.896 143.431 173.652 150.019 193.897C156.607 214.143 178.347 225.211 198.578 218.618Z" fill="white"/>
<path d="M195.478 105.445C208.966 101.05 216.339 86.5461 211.947 73.0493C207.556 59.5524 193.062 52.1738 179.574 56.5687C166.087 60.9636 158.714 75.4677 163.105 88.9645C167.497 102.461 181.991 109.84 195.478 105.445Z" fill="white"/>
<path d="M186.521 28.6327C194.401 28.6277 200.785 22.2309 200.78 14.3452C200.775 6.45946 194.383 0.0708716 186.503 0.0758845C178.623 0.0808973 172.238 6.47762 172.243 14.3634C172.248 22.2491 178.641 28.6377 186.521 28.6327Z" fill="white"/>
<path d="M186.808 480.991C194.688 480.986 201.072 474.589 201.067 466.704C201.062 458.818 194.67 452.429 186.79 452.434C178.91 452.439 172.526 458.836 172.531 466.722C172.536 474.608 178.928 480.996 186.808 480.991Z" fill="white"/>
<path d="M466.362 193.385C473.855 190.943 477.951 182.885 475.511 175.387C473.071 167.889 465.019 163.79 457.526 166.231C450.033 168.673 445.937 176.731 448.377 184.229C450.817 191.727 458.869 195.826 466.362 193.385Z" fill="white"/>
<path d="M22.4027 193.668C29.8957 191.226 33.992 183.169 31.5521 175.67C29.1123 168.172 21.0601 164.073 13.5672 166.515C6.07423 168.956 1.97791 177.014 4.41778 184.512C6.85766 192.01 14.9098 196.11 22.4027 193.668Z" fill="white"/>
<path d="M398.151 203.659C411.639 199.264 419.012 184.76 414.62 171.263C410.228 157.766 395.734 150.388 382.247 154.783C368.76 159.177 361.386 173.682 365.778 187.178C370.17 200.675 384.664 208.054 398.151 203.659Z" fill="white"/>
<path d="M398.092 109.649C411.579 105.254 418.952 90.7502 414.561 77.2534C410.169 63.7565 395.675 56.3779 382.188 60.7728C368.7 65.1677 361.327 79.6718 365.719 93.1686C370.11 106.665 384.604 114.044 398.092 109.649Z" fill="white"/>
<path d="M97.0887 203.851C110.576 199.456 117.949 184.952 113.558 171.456C109.166 157.959 94.672 150.58 81.1847 154.975C67.6973 159.37 60.3239 173.874 64.7157 187.371C69.1075 200.868 83.6014 208.246 97.0887 203.851Z" fill="white"/>
<path d="M97.0292 109.841C110.516 105.446 117.89 90.9416 113.498 77.4448C109.106 63.9479 94.6124 56.5694 81.1251 60.9642C67.6377 65.3591 60.2643 79.8632 64.6561 93.3601C69.0479 106.857 83.5418 114.235 97.0292 109.841Z" fill="white"/>
<path d="M195.681 424.496C209.169 420.101 216.542 405.597 212.15 392.1C207.759 378.603 193.265 371.225 179.777 375.62C166.29 380.014 158.917 394.518 163.308 408.015C167.7 421.512 182.194 428.891 195.681 424.496Z" fill="white"/>
<path d="M198.652 335.764C218.883 329.171 229.943 307.415 223.355 287.17C216.767 266.925 195.027 255.857 174.796 262.449C154.565 269.042 143.504 290.798 150.092 311.043C156.68 331.288 178.421 342.356 198.652 335.764Z" fill="white"/>
<path d="M304.226 218.551C324.457 211.959 335.517 190.202 328.929 169.957C322.342 149.712 300.601 138.644 280.37 145.236C260.139 151.829 249.079 173.585 255.666 193.83C262.254 214.075 283.995 225.143 304.226 218.551Z" fill="white"/>
<path d="M301.127 105.378C314.614 100.983 321.988 86.4787 317.596 72.9819C313.204 59.485 298.71 52.1065 285.223 56.5013C271.735 60.8962 264.362 75.4003 268.754 88.8972C273.146 102.394 287.639 109.773 301.127 105.378Z" fill="white"/>
<path d="M292.17 28.5663C300.051 28.5613 306.435 22.1645 306.43 14.2788C306.425 6.39306 300.032 0.00446539 292.152 0.0094782C284.272 0.014491 277.888 6.41121 277.893 14.297C277.898 22.1827 284.29 28.5713 292.17 28.5663Z" fill="white"/>
<path d="M292.457 480.925C300.338 480.92 306.722 474.523 306.717 466.637C306.712 458.751 300.32 452.363 292.439 452.368C284.559 452.373 278.175 458.77 278.18 466.655C278.185 474.541 284.577 480.93 292.457 480.925Z" fill="white"/>
<path d="M466.433 304.757C473.926 302.315 478.022 294.258 475.582 286.759C473.143 279.261 465.09 275.162 457.597 277.604C450.105 280.045 446.008 288.103 448.448 295.601C450.888 303.099 458.94 307.199 466.433 304.757Z" fill="white"/>
<path d="M22.4731 305.04C29.966 302.599 34.0623 294.541 31.6225 287.043C29.1826 279.544 21.1304 275.445 13.6375 277.887C6.14455 280.328 2.04822 288.386 4.4881 295.884C6.92797 303.383 14.9801 307.482 22.4731 305.04Z" fill="white"/>
<path d="M398.211 296.469C411.698 292.075 419.072 277.571 414.68 264.074C410.288 250.577 395.794 243.198 382.307 247.593C368.819 251.988 361.446 266.492 365.838 279.989C370.23 293.486 384.723 300.864 398.211 296.469Z" fill="white"/>
<path d="M398.269 389.278C411.757 384.883 419.13 370.379 414.738 356.882C410.347 343.385 395.853 336.007 382.365 340.402C368.878 344.797 361.505 359.301 365.896 372.798C370.288 386.294 384.782 393.673 398.269 389.278Z" fill="white"/>
<path d="M97.1483 296.66C110.636 292.265 118.009 277.761 113.617 264.264C109.225 250.767 94.7316 243.389 81.2442 247.784C67.7569 252.178 60.3835 266.683 64.7753 280.179C69.1671 293.676 83.661 301.055 97.1483 296.66Z" fill="white"/>
<path d="M97.2069 389.47C110.694 385.076 118.068 370.571 113.676 357.075C109.284 343.578 94.7902 336.199 81.3028 340.594C67.8155 344.989 60.4421 359.493 64.8339 372.99C69.2257 386.487 83.7196 393.865 97.2069 389.47Z" fill="white"/>
<path d="M301.33 424.429C314.817 420.035 322.191 405.53 317.799 392.034C313.407 378.537 298.913 371.158 285.426 375.553C271.939 379.948 264.565 394.452 268.957 407.949C273.349 421.446 287.843 428.824 301.33 424.429Z" fill="white"/>
<path d="M304.301 335.697C324.532 329.105 335.592 307.349 329.004 287.104C322.417 266.858 300.676 255.791 280.445 262.383C260.214 268.975 249.154 290.731 255.742 310.977C262.329 331.222 284.07 342.29 304.301 335.697Z" fill="white"/>
</g>
<defs>
<clipPath id="clip0_303_2157">
<rect width="480" height="481" fill="white"/>
</clipPath>
</defs>
</svg>
