<svg width="512" height="512" viewBox="0 0 512 512" fill="none" xmlns="http://www.w3.org/2000/svg">
<path d="M416 128C415.375 128 414.875 128.25 414.375 128.25C415.5 123 416 117.6 416 112C416 67.75 380.3 32 336 32C311.38 32 289.75 43.25 275 60.75C256.4 24.75 219.3 0 176 0C114.1 0 64 50.13 64 112C64 119.25 64.75 126.25 66.125 133.25C27.75 145.8 0 181.5 0 224C0 277 43 320 96 320H416C469 320 512 277 512 224C512 171 469 128 416 128ZM368 464C368 490.51 389.49 512 416 512C442.51 512 464 490.51 464 464C464 437.49 415.99 368.9 415.99 368.9C415.99 368.9 368 437.5 368 464ZM260.01 464C260.01 490.51 281.5 512 308.01 512C334.52 512 356.01 490.51 356.01 464C356.01 437.49 308.01 368.9 308.01 368.9C308.01 368.9 260.01 437.5 260.01 464Z" fill="black"/>
<path d="M227.398 470.033C225.238 473.38 221.284 475.25 217.257 475.25C215.248 475.25 213.216 474.789 211.352 473.814L202.167 469.011L204.136 475.668C205.379 479.872 202.578 484.19 197.884 485.296C197.128 485.48 196.372 485.562 195.627 485.562C191.736 485.562 188.174 483.234 187.13 479.708L180.636 457.75L158.72 446.277L158.72 469.409L176.431 485.448C179.85 488.545 179.816 493.527 176.363 496.585C174.645 498.12 172.412 498.875 170.179 498.875C167.911 498.875 165.643 498.096 163.926 496.537L158.72 491.822V501.5C158.72 507.305 153.47 512 146.994 512C140.518 512 135.269 507.305 135.269 501.5L135.268 491.82L130.063 496.535C126.65 499.632 121.083 499.653 117.627 496.597C114.174 493.541 114.14 488.558 117.558 485.46L135.269 469.422L134.961 446.277L113.043 457.738L106.549 479.696C105.506 483.223 101.944 485.55 98.0522 485.55C97.3072 485.55 96.5512 485.468 95.7956 485.283C91.1024 484.176 88.3018 479.859 89.5428 475.656L91.512 468.998L82.3269 473.802C80.7838 474.791 78.752 475.25 76.7422 475.25C72.7116 475.25 68.7835 473.384 66.6053 470.039C63.3354 465.035 65.2196 458.607 70.8153 455.684L80.3189 450.713L72.8764 448.906C68.1868 447.786 65.4228 443.455 66.6931 439.255C67.9635 435.055 72.7738 432.594 77.4817 433.709L101.611 439.583L123.759 428L101.611 416.417L77.4817 422.291C76.7089 422.475 75.935 422.567 75.1735 422.567C71.304 422.567 67.753 420.26 66.695 416.753C65.4228 412.545 68.1868 408.247 72.8764 407.098L80.3189 405.291L70.8153 400.306C65.2215 397.384 63.3361 390.955 66.6053 385.951C69.858 380.937 77.0388 379.244 82.6436 382.177L91.8287 386.981L89.8591 380.323C88.6181 376.127 91.4333 371.809 95.7897 370.703C100.842 369.564 105.308 372.097 106.882 376.291L113.377 398.249L134.961 409.723L134.961 386.591L117.572 370.539C114.167 367.441 114.167 362.457 117.645 359.402C121.086 356.334 126.651 356.377 130.092 359.465L135.298 364.18L134.961 354.5C134.961 348.695 140.211 344 146.687 344C153.163 344 158.413 348.695 158.413 354.5L158.413 364.18L163.618 359.465C167.026 356.378 172.591 356.337 176.054 359.403C179.507 362.459 179.541 367.442 176.123 370.54L158.412 386.578L158.72 409.723L180.638 398.262L187.132 376.304C188.375 372.11 193.194 369.577 197.888 370.716C202.581 371.823 205.382 376.14 204.141 380.343L202.171 387.001L211.356 382.197C216.95 379.275 224.137 380.967 227.395 385.97C230.665 390.974 228.78 397.402 223.185 400.326L213.681 405.297L221.124 407.104C225.813 408.243 228.581 412.571 227.307 416.764C226.247 420.272 222.698 422.579 218.828 422.579C218.067 422.579 217.293 422.486 216.52 422.302L192.071 416.417L170.252 428L192.385 439.576L216.529 433.713C221.248 432.594 226.043 435.055 227.325 439.255C228.596 443.448 225.83 447.776 221.142 448.915L213.699 450.722L223.203 455.693C228.789 458.614 230.656 465.045 227.398 470.033Z" fill="black"/>
</svg>
