<svg width="512" height="512" viewBox="0 0 512 512" fill="none" xmlns="http://www.w3.org/2000/svg">
<path d="M416 128C415.375 128 414.875 128.25 414.375 128.25C415.5 123 416 117.6 416 112C416 67.75 380.25 32 336.9 32C312.28 32 290.65 43.25 276.8 60.75C256.4 24.75 219.3 0 176 0C114.3 0 64.0005 50.13 64.0005 112C64.0005 119.25 64.7517 126.25 66.1265 133.25C27.7605 145.8 0.00585938 181.5 0.00585938 224C0.00585938 277 42.1059 320 95.1059 320H414.206C469 320 512 277 512 224C512 171 469 128 416 128ZM198.8 353.9C186.63 348.681 172.5 354.306 167.28 366.49L120.18 478.49C114.961 490.68 120.602 504.8 132.79 510.02C134.1 511.4 138.2 512 141.3 512C150.612 512 159.47 506.562 163.38 497.47L210.48 385.47C216.6 373.3 210.1 359.2 198.8 353.9ZM81.4605 353.9C69.2705 348.681 55.1605 354.306 49.9405 366.49L2.84046 478.49C-3.27554 490.7 2.36546 504.8 14.5505 510.1C17.6305 511.4 20.8305 512 23.9905 512C33.3025 512 42.1605 506.562 46.0705 497.47L93.1705 385.47C99.2905 373.3 93.6405 359.2 81.4605 353.9ZM316.1 353.9C303.91 348.681 289.8 354.306 284.58 366.49L237.48 478.49C232.261 490.68 237.902 504.8 250.09 510.02C252.3 511.4 255.5 512 258.7 512C268.012 512 276.87 506.562 280.78 497.47L327.88 385.47C333.1 373.3 328.3 359.2 316.1 353.9ZM433.5 353.9C421.33 348.681 407.22 354.306 401.98 366.49L354.88 478.49C349.661 490.68 355.302 504.8 367.49 510.02C369.6 511.4 372.8 512 375.1 512C384.412 512 393.27 506.562 397.18 497.47L444.28 385.47C451.3 373.3 445.6 359.2 433.5 353.9Z" fill="white"/>
</svg>
