<svg width="447" height="458" viewBox="0 0 447 458" fill="none" xmlns="http://www.w3.org/2000/svg">
<path d="M208.134 310.581V406.833C208.134 406.833 211.277 432.237 180.546 432.237H58.3196C27.2392 432.237 30.7313 406.833 30.7313 406.833V310.581H208.134Z" fill="white"/>
<path d="M151.91 37.9279C147.72 30.7717 140.037 26.1201 131.306 26.1201H91.8447C77.876 26.1201 66.701 37.5701 66.701 51.8826C66.701 56.892 68.0979 61.5436 70.5424 65.4795L70.8916 65.8373C82.4158 82.6545 89.4002 103.408 89.4002 125.592C89.4002 163.162 69.8439 196.081 40.5096 214.329H40.1604C34.5729 217.908 30.7314 224.348 30.7314 231.862V262.276H208.135V149.923C208.135 149.923 208.484 139.547 201.499 126.665L151.91 37.9279Z" fill="white"/>
<path d="M293.344 37.9279C297.535 30.7717 305.217 26.1201 313.948 26.1201H353.41C367.378 26.1201 378.553 37.5701 378.553 51.8826C378.553 56.892 377.156 61.5436 374.712 65.4795L374.363 65.8373C362.838 82.6545 355.854 103.408 355.854 125.592C355.854 163.162 375.41 196.081 405.094 214.329H405.443C411.031 217.908 414.872 224.348 414.872 231.862V262.276H236.771V149.923C236.771 149.923 236.77 139.547 243.406 126.665L293.344 37.9279Z" fill="white"/>
<path d="M414.523 310.581V406.833C414.523 406.833 417.666 432.237 386.934 432.237H264.708C233.627 432.237 237.12 406.833 237.12 406.833V310.581H414.523Z" fill="white"/>
<path d="M237.818 295.196C242.358 295.196 246.199 291.26 246.199 286.608C246.199 281.956 242.358 278.021 237.818 278.021H209.531C204.991 278.021 201.15 281.956 201.15 286.608C201.15 291.26 204.991 295.196 209.531 295.196H237.818Z" fill="white"/>
</svg>
