<svg width="512" height="512" viewBox="0 0 512 512" fill="none" xmlns="http://www.w3.org/2000/svg">
<path d="M288 384C270.33 384 256 398.33 256 416C256 433.67 270.33 448 288 448C305.67 448 320 433.67 320 416C320 398.3 305.7 384 288 384ZM416 256C398.33 256 384 270.33 384 288C384 305.67 398.33 320 416 320C433.67 320 448 305.67 448 288C448 270.3 433.7 256 416 256ZM480 192C462.33 192 448 206.33 448 224C448 241.67 462.33 256 480 256C497.67 256 512 241.67 512 224C512 206.3 497.7 192 480 192ZM288 320C288 302.33 273.67 288 256 288C238.33 288 224 302.33 224 320C224 337.67 238.33 352 256 352C273.67 352 288 337.7 288 320ZM320 224C302.33 224 288 238.33 288 256C288 273.67 302.33 288 320 288C337.67 288 352 273.67 352 256C352 238.3 337.7 224 320 224ZM384 224C401.67 224 416 209.67 416 192C416 174.33 401.67 160 384 160C366.33 160 352 174.33 352 192C352 209.7 366.3 224 384 224ZM352 320C334.33 320 320 334.33 320 352C320 369.67 334.33 384 352 384C369.67 384 384 369.67 384 352C384 334.3 369.7 320 352 320ZM347.3 91.3101L335.99 80.0001C329.742 73.7521 319.61 73.7521 313.36 80.0001L306.729 86.6311C271.579 60.341 224.919 57.4711 187.129 77.8521L170.5 61.2501C132.2 22.9501 63.65 18.3301 21.98 71.1601C7.027 90.1101 0 114.3 0 138.4V464C0 472.8 7.164 480 16 480H48C56.84 480 64 472.8 64 464V131.9C64 112.12 80.09 96.0301 99.88 96.0301C109.318 96.0301 118.57 99.8581 125.26 106.53L141.87 123.14C121.5 160.9 124.3 207.6 150.6 242.7L144 249.4C137.752 255.648 137.752 265.78 144 272.03L155.31 283.34C161.558 289.59 171.69 289.59 177.94 283.34L347.34 113.94C353.6 107.7 353.6 97.5601 347.3 91.3101Z" fill="white"/>
</svg>
