<svg width="583" height="512" viewBox="0 0 583 512" fill="none" xmlns="http://www.w3.org/2000/svg">
<path d="M58.4 136.734L160.5 174.084C195.63 92.4636 246.75 29.6836 299.5 0.383578C203.62 -4.49142 110.7 37.3436 51 112.084C44.2 120.534 48.2 133.134 58.4 136.734ZM190.6 184.934L429.1 271.804C464.85 150.404 447.72 40.2036 386.47 17.9036C379.095 15.2786 371.35 13.8416 363.35 13.8416C305.4 13.8136 235.1 83.0636 190.6 184.934ZM464.5 60.4436C470.75 76.6936 475.25 95.0636 477.63 115.694C483.38 165.564 476.254 223.794 458.75 282.594L561.35 319.964C571.48 323.714 582.6 316.589 582.85 305.844C585.3 210.034 541 118.334 464.5 60.4436ZM471 447.934H264L329 269.434L268.87 247.564L195.99 447.964H33C12 447.964 5.99973 462 6 481C6.00027 500 11 511.934 33 511.934H471C498 511.934 498 492.5 498 481C498 469.5 497.5 447.934 471 447.934Z" fill="white"/>
</svg>
