<svg width="525" height="511" viewBox="0 0 525 511" fill="none" xmlns="http://www.w3.org/2000/svg">
<path d="M305.979 161.787C329.666 161.787 348.867 143.098 348.867 120.043C348.867 96.9884 329.666 78.2988 305.979 78.2988C282.293 78.2988 263.091 96.9884 263.091 120.043C263.091 143.098 282.293 161.787 305.979 161.787Z" fill="white"/>
<path d="M101 324C124.196 324 143 305.196 143 282C143 258.804 124.196 240 101 240C77.8041 240 59 258.804 59 282C59 305.196 77.8041 324 101 324Z" fill="white"/>
<path d="M305.985 57.659C315.325 57.659 322.897 50.2895 322.897 41.1983V16.4608C322.897 7.36956 315.324 0 305.985 0C296.646 0 289.073 7.36956 289.073 16.4608V41.1983C289.073 50.2885 296.644 57.659 305.985 57.659Z" fill="white"/>
<path d="M363.268 80.753C367.597 80.753 371.925 79.1461 375.226 75.9314L393.197 58.4387C399.802 52.0103 399.802 41.5887 393.197 35.1603C386.594 28.7329 375.886 28.7319 369.281 35.1603L351.311 52.653C344.707 59.0814 344.707 69.503 351.311 75.9314C354.612 79.1471 358.94 80.753 363.268 80.753Z" fill="white"/>
<path d="M370.084 120.048C370.084 129.139 377.656 136.508 386.996 136.508H412.41C421.751 136.508 429.322 129.139 429.322 120.048C429.322 110.956 421.75 103.587 412.41 103.587H386.996C377.656 103.587 370.084 110.956 370.084 120.048Z" fill="white"/>
<path d="M351.31 164.163C344.706 170.592 344.706 181.013 351.31 187.442L369.28 204.933C372.583 208.147 376.911 209.754 381.238 209.754C385.565 209.754 389.895 208.147 393.196 204.933C399.801 198.504 399.801 188.083 393.196 181.654L375.226 164.163C368.623 157.734 357.914 157.734 351.31 164.163Z" fill="white"/>
<path d="M289.073 198.897V223.635C289.073 232.726 296.645 240.096 305.985 240.096C315.325 240.096 322.897 232.726 322.897 223.635V198.897C322.897 189.806 315.325 182.437 305.985 182.437C296.645 182.437 289.073 189.807 289.073 198.897Z" fill="white"/>
<path d="M236.745 164.163L218.775 181.654C212.171 188.082 212.172 198.504 218.776 204.932C222.079 208.147 226.407 209.753 230.734 209.753C235.061 209.753 239.39 208.145 242.693 204.931L260.662 187.441C267.267 181.012 267.265 170.591 260.662 164.162C254.058 157.735 243.349 157.735 236.745 164.163Z" fill="white"/>
<path d="M199.562 136.508H224.976C234.317 136.508 241.888 129.139 241.888 120.048C241.888 110.956 234.317 103.587 224.976 103.587H199.562C190.222 103.587 182.65 110.956 182.65 120.048C182.65 129.139 190.222 136.508 199.562 136.508Z" fill="white"/>
<path d="M236.744 75.9313C240.048 79.147 244.376 80.7529 248.703 80.7529C253.03 80.7529 257.359 79.146 260.661 75.9323C267.265 69.5049 267.266 59.0823 260.662 52.6539L242.692 35.1612C236.088 28.7328 225.381 28.7318 218.774 35.1602C212.17 41.5876 212.169 52.0102 218.773 58.4386L236.744 75.9313Z" fill="white"/>
<path d="M483.252 478.938L43.2981 334.388C34.4438 331.48 24.8534 336.106 21.8654 344.72C18.8774 353.334 23.6301 362.673 32.4792 365.581L108.263 390.48L58.7096 487.189C54.5414 495.324 57.9365 505.207 66.2965 509.265C68.7205 510.442 71.2942 510.999 73.8311 510.999C80.0408 510.999 86.0188 507.658 88.9781 501.881L140.613 401.108L472.434 510.131C474.229 510.72 476.052 511 477.846 511C484.902 511 491.486 506.667 493.867 499.799C496.854 491.186 492.102 481.846 483.252 478.938Z" fill="white"/>
<path d="M498.006 382.889L423.816 288.618C421.646 285.862 419.059 283.6 416.208 281.852C407.879 276.704 397.072 275.784 387.581 280.349L306.298 319.436C305.596 319.159 304.886 318.891 304.158 318.651L201.025 284.658C182.164 278.44 161.698 288.283 155.311 306.642C148.924 324.997 159.037 344.918 177.897 351.134L281.033 385.125C281.222 385.188 281.41 385.239 281.6 385.297C283.62 385.977 285.716 386.437 287.849 386.675C298.619 388.08 309.303 384.626 317.051 377.681L391.971 341.651L451.634 417.461C461.441 429.924 479.773 432.287 492.578 422.742C505.385 413.194 507.816 395.353 498.006 382.889Z" fill="white"/>
</svg>
