<svg width="97" height="97" viewBox="0 0 97 97" fill="none" xmlns="http://www.w3.org/2000/svg">
<path d="M48.9702 0.970215C22.4602 0.970215 0.970215 22.4602 0.970215 48.9702C0.970215 75.4802 22.4602 96.9702 48.9702 96.9702C75.4802 96.9702 96.9702 75.4802 96.9702 48.9702C96.9702 22.4602 75.4802 0.970215 48.9702 0.970215ZM40.8202 3.85021C43.4702 3.37021 46.1902 3.11021 48.9702 3.11021C52.3602 3.11021 55.6502 3.49021 58.8302 4.18021C59.5002 7.96021 59.8602 11.9802 59.8602 16.1702C59.8602 21.8602 59.1802 27.2602 57.9902 32.1102C55.3002 30.6702 52.2302 29.8502 48.9702 29.8502C46.2902 29.8502 43.7402 30.4102 41.4302 31.4002C40.3402 26.7302 39.7302 21.5802 39.7302 16.1702C39.7302 11.8602 40.1102 7.71021 40.8202 3.84021V3.85021ZM16.8302 59.2102C12.3302 59.2102 8.03021 58.7902 4.02021 58.0202C3.43021 55.0902 3.12022 52.0602 3.12022 48.9602C3.12022 45.8602 3.41021 43.0902 3.95021 40.2702C7.98021 39.5002 12.3102 39.0702 16.8302 39.0702C22.1302 39.0702 27.1702 39.6502 31.7602 40.6902C30.5602 43.1902 29.8602 45.9902 29.8602 48.9502C29.8602 51.9102 30.6102 54.9502 31.9102 57.5302C27.2802 58.6002 22.1802 59.1902 16.8202 59.1902L16.8302 59.2102ZM58.8902 93.7302C55.6902 94.4402 52.3802 94.8202 48.9702 94.8202C46.1602 94.8202 43.4202 94.5502 40.7602 94.0702C40.1002 90.3102 39.7302 86.2902 39.7302 82.1102C39.7302 76.5702 40.3702 71.3102 41.5102 66.5502C43.8002 67.5202 46.3302 68.0602 48.9702 68.0602C52.2002 68.0602 55.2402 67.2502 57.9102 65.8302C59.1602 70.7702 59.8602 76.2802 59.8602 82.1002C59.8602 86.1502 59.5102 90.0502 58.8902 93.7202V93.7302ZM48.9702 65.9602C39.5802 65.9602 31.9702 58.3502 31.9702 48.9602C31.9702 39.5702 39.5802 31.9602 48.9702 31.9602C58.3602 31.9602 65.9702 39.5702 65.9702 48.9602C65.9702 58.3502 58.3602 65.9602 48.9702 65.9602ZM82.7602 59.2102C76.8202 59.2102 71.2102 58.4802 66.1902 57.1902C67.3802 54.7002 68.0702 51.9102 68.0702 48.9702C68.0702 46.0302 67.4402 43.4802 66.3502 41.0702C71.3302 39.8002 76.8902 39.0902 82.7602 39.0902C86.6502 39.0902 90.4002 39.4102 93.9402 39.9902C94.5202 42.9002 94.8302 45.9002 94.8302 48.9802C94.8302 52.0602 94.5002 55.3202 93.8702 58.3402C90.3502 58.9102 86.6302 59.2302 82.7702 59.2302L82.7602 59.2102Z" fill="white"/>
</svg>
