<svg width="512" height="512" viewBox="0 0 512 512" fill="none" xmlns="http://www.w3.org/2000/svg">
<path d="M64 64V448H19.2C8.6 448 0 437.3 0 424C0 410.7 8.6 400 19.2 400H25.6V360H19.2C8.6 360 0 349.3 0 336C0 322.7 8.6 312 19.2 312H25.6V280H19.2C8.6 280 0 269.3 0 256C0 242.7 8.6 232 19.2 232H25.6V200H19.2C8.6 200 0 189.3 0 176C0 162.7 8.6 152 19.2 152H25.6V112H19.2C8.6 112 0 101.3 0 88C0 74.75 8.6 64 19.2 64H64ZM89.6 64H422.4V448H89.6V64ZM492.8 112H486.4V152H492.8C503.44 152 512 162.7 512 176C512 189.3 503.44 200 492.8 200H486.4V232H492.8C503.44 232 512 242.7 512 256C512 269.3 503.44 280 492.8 280H486.4V312H492.8C503.44 312 512 322.7 512 336C512 349.3 503.44 360 492.8 360H486.4V400H492.8C503.44 400 512 410.7 512 424C512 437.3 503.44 448 492.8 448H448V64H492.8C503.44 64 512 74.75 512 88C512 101.3 503.44 112 492.8 112Z" fill="white"/>
</svg>
