<svg width="576" height="512" viewBox="0 0 576 512" fill="none" xmlns="http://www.w3.org/2000/svg">
<path d="M192 496C192 504.8 199.3 512 208 512H240C248.8 512 256 504.8 256 496V320H192V496ZM544 0H512V496C512 504.75 519.25 512 528 512H560C568.75 512 576 504.75 576 496V32C576 14.25 561.8 0 544 0ZM64 128C90.5 128 112 106.5 112 80C112 53.5 90.5 32 64 32C37.5 32 16 53.5 16 80C16 106.5 37.5 128 64 128ZM224 224H173.1L127.9 178.8C115.8 166.6 99.75 160 82.75 160H64C46.88 160 30.75 166.8 18.75 178.8C6.75 190.92 0.03 207.02 0.03 224.15L0 480C0 497.75 14.25 512 31.88 512C49.51 512 63.88 497.75 63.88 480L64 379.3C64.875 379.8 65.625 380.675 66.5 381.05L95.63 424V480C95.63 497.75 109.88 512 127.63 512C145.25 512 159.63 497.75 159.63 480V423.5C159.63 413.625 157.255 403.75 152.88 394.88L111.75 333.63V253L132.63 273.88C141.8 283 153.8 288 166.5 288H224C241.75 288 256 273.75 256 256C256 238.25 241.8 224 224 224ZM192 32V192H256V0H224C206.3 0 192 14.25 192 32ZM288 32L319.5 255.1L288.62 409.7C284.3 431.3 301.6 448 320 448C335.25 448 347.99 438.875 352.24 417.62C353.3 434.5 366.9 448 384 448C401.75 448 416 433.75 416 416C416 433.75 430.25 448 448 448C465.75 448 480 433.75 480 416V0H288V32Z" fill="white"/>
</svg>
