<svg width="512" height="512" viewBox="0 0 512 512" fill="none" xmlns="http://www.w3.org/2000/svg">
<g clip-path="url(#clip0_303_2148)">
<path d="M446.1 12.1L454.5 0H382.4C382.8 4.3 383.1 8.6 383.1 13C383.1 83.7 326.7 140.1 256 140.1C185.3 140.1 128.9 82.8 128.9 13C128.9 8.6 129.1 4.3 129.6 0H56.9996L65.8996 13L2.69961 104C-3.60039 113.1 1.59961 125.7 12.4996 127.7L121.5 147.4L141.2 256.4C143.2 267.3 155.8 272.6 164.9 266.2L255.9 203L346.9 266.2C356 272.5 368.7 267.3 370.6 256.4L390.3 147.4L499.3 127.7C510.3 125.8 515.5 113.1 509.2 104L446.1 12.1Z" fill="white"/>
<path d="M161.6 0C161.2 3.7 160.9 7.4 160.9 11.2C160.9 63.3 202.1 108.1 256 108.1C309.9 108.1 351.1 65.1 351.1 13C351.1 8.6 350.8 4.3 350.2 0H161.6V0Z" fill="white"/>
<path d="M12.9004 497.8C0.50039 490.6 -3.79961 474.7 3.40039 462.3L78.7004 331.8C85.9004 319.4 101.8 315.1 114.2 322.3C126.6 329.5 130.9 345.4 123.7 357.8L48.4004 488.3C41.2004 500.7 25.3004 505 12.9004 497.8Z" fill="white"/>
<path d="M499.1 497.8C511.5 490.6 515.8 474.7 508.6 462.3L433.3 331.8C426.1 319.4 410.2 315.1 397.8 322.3C385.4 329.5 381.1 345.4 388.3 357.8L463.6 488.3C470.8 500.7 486.7 505 499.1 497.8Z" fill="white"/>
<path d="M177.3 500.6C163.3 497.3 154.7 483.3 158 469.3L188.7 339.3C192 325.3 206 316.7 220 320C234 323.3 242.6 337.3 239.3 351.3L208.6 481.3C205.3 495.2 191.3 503.9 177.3 500.6Z" fill="white"/>
<path d="M340 500.6C354 497.3 362.6 483.3 359.3 469.3L328.6 339.3C325.3 325.3 311.3 316.7 297.3 320C283.3 323.3 274.7 337.3 278 351.3L308.7 481.3C312 495.2 326.1 503.9 340 500.6Z" fill="white"/>
</g>
<defs>
<clipPath id="clip0_303_2148">
<rect width="512" height="512" fill="white"/>
</clipPath>
</defs>
</svg>
