<svg width="512" height="512" viewBox="0 0 512 512" fill="none" xmlns="http://www.w3.org/2000/svg">
<g clip-path="url(#clip0_273_2177)">
<path d="M256 254.2C202.98 254.2 256 254.2 160.9 254.2C160.9 306.32 202.1 351.1 256 351.1C309.9 351.1 350 308.12 350 256C350 256 340.5 256 256 254.2ZM509.3 347L446.1 255.1L383.1 256C383.1 151 323.5 139 323.5 139L323.5 121.6C323.5 121.6 309.13 119.664 300 126C300 126 299.457 128.627 256 128.9C212.454 129.174 204.5 108.5 204.5 108.5C204.5 108.5 180.1 132 170.5 139C160.9 146 138.5 163.5 138.5 163.5L118 221.5L128.9 256L65.89 256L2.74001 347.01C-3.59199 356.135 1.63501 368.75 12.564 370.73L121.564 390.43L141.264 499.43C143.239 510.36 155.854 515.59 164.984 509.254L256 446.1L347.01 509.25C356.137 515.584 368.76 510.357 370.73 499.428L390.43 390.428L499.43 370.728C510.4 368.8 515.6 356.1 509.3 347ZM256 383.1C185.31 383.1 128.9 325.79 128.9 256C128.9 185.31 186.21 128.9 256 128.9C325.79 128.9 383.1 186.2 383.1 256C383.1 326.7 326.7 383.1 256 383.1Z" fill="black"/>
</g>
<defs>
<clipPath id="clip0_273_2177">
<rect width="512" height="512" fill="white"/>
</clipPath>
</defs>
</svg>
