<svg width="320" height="512" viewBox="0 0 320 512" fill="none" xmlns="http://www.w3.org/2000/svg">
<path d="M176 322.9L176 208C176 199.25 168.75 192 160 192C151.25 192 144.9 199.25 144.9 208L144 322.9C125.38 329.525 112 347.15 112 368.03C112 394.53 133.5 416.03 160 416.03C186.5 416.03 208 394.53 208 368.03C208 347.1 194.6 329.5 176 322.9ZM272 278.5V112C272 50.13 221.88 0 160.9 0C99.92 0 48 50.13 48 112V278.5C28.25 303.25 16 334 16 368C16 447.5 80.5 511.1 160 511.1C239.5 511.1 304 447.5 304 368C304 334 291.8 303.1 272 278.5ZM160 448C115.87 448 80 412.13 80 368.9C80 343.4 92.25 320.02 112 305.15V112.85C112 86.35 133.5 64.85 160 64.85C186.5 64.85 208 86.35 208 112.85V305.15C227.75 319.9 240 343.4 240 368.9C240 412.1 204.1 448 160 448Z" fill="white"/>
</svg>
