<svg width="577" height="513" viewBox="0 0 577 513" fill="none" xmlns="http://www.w3.org/2000/svg">
<path d="M184.508 96.3567C207.493 96.3421 229.383 101.424 248.177 110.605C264.171 117.989 271.978 137.069 264.493 153.061C256.209 169.054 238.025 175.96 222.03 168.576C210.733 162.388 198.04 160.298 184.549 160.306C135.679 160.337 95.3301 199.832 95.361 248.293C95.3858 287.263 121.89 320.419 157.375 331.888C167.371 334.679 179.864 336.17 191.356 336.163C192.256 336.162 192.356 336.162 192.356 336.162C219.838 335.245 247.314 325.536 269.69 310.034C280.778 302.133 295.569 302.123 306.667 310.01C328.263 325.484 356.652 336.058 384.134 336.04C411.017 336.023 439.493 325.214 461.469 309.912L461.569 309.912C473.456 301.411 489.546 302.1 500.745 311.585C515.044 323.467 533.238 332.548 551.329 336.733C568.521 340.719 579.225 357.999 575.239 375.188C571.252 392.377 553.17 403.08 536.778 399.093C512.29 393.313 491.996 382.535 478.599 374.15C449.627 389.656 417.154 399.969 384.175 399.99C352.295 400.01 323.607 390.136 303.814 381.156C297.916 378.561 292.718 375.867 288.219 373.472C283.723 375.873 278.528 378.574 272.634 381.176C252.852 390.181 224.176 400.091 192.297 400.112C190.498 400.113 188.598 399.215 186.8 400.015C186.1 399.216 185.401 400.116 184.701 400.116C170.111 400.126 155.918 398.036 142.524 394.248C53.8863 372.322 0.349466 291.919 0.291156 200.392C0.219853 88.4703 95.2831 0.489302 209.031 0.41695C232.816 0.401821 255.804 4.20718 277.195 11.265C293.988 16.7899 303.094 34.8698 297.608 51.6401C292.022 68.4104 273.939 77.5247 257.246 71.9997C242.253 67.0631 225.162 64.3561 209.072 64.3664C152.708 64.4022 105.057 94.229 81.0091 136.891C108.166 111.793 144.533 96.3822 184.508 96.3567ZM461.54 421.823L461.64 421.823C473.527 413.322 489.617 414.011 500.816 423.497C515.115 435.378 533.309 444.46 551.4 448.645C568.592 452.631 579.296 469.91 575.31 487.099C571.323 504.288 553.242 514.991 536.849 511.005C512.361 505.225 492.067 494.446 478.67 486.061C449.699 501.568 417.226 511.88 384.246 511.901C352.367 511.921 323.678 502.047 303.885 493.067C297.987 490.473 292.789 487.778 288.29 485.383C283.795 487.784 278.6 490.485 272.705 493.087C252.923 502.092 224.248 512.003 192.368 512.023C158.489 512.045 126.903 501.773 97.9111 486.304C84.5449 494.705 64.2346 505.51 39.7338 511.321C22.5373 515.329 5.33433 504.648 1.31511 487.464C-2.7045 470.28 7.97872 452.987 25.1733 448.979C43.2592 444.771 61.3619 435.667 75.6953 423.767C86.8322 414.268 102.962 413.558 114.859 422.044L114.959 422.044C137.055 437.317 165.444 448.091 192.327 448.074C219.81 448.056 247.286 437.447 269.761 421.945C280.849 414.044 295.64 414.035 306.738 421.922C328.334 437.396 356.723 447.969 384.206 447.952C411.089 447.935 439.564 437.125 461.54 421.823Z" fill="black"/>
</svg>
