<svg width="512" height="512" viewBox="0 0 512 512" fill="none" xmlns="http://www.w3.org/2000/svg">
<path d="M32 192H352C404.94 192 448 148.94 448 96C448 43.06 404.94 0 352 0H320C302.31 0 288 14.31 288 32C288 49.69 302.31 64 320 64H352C369.66 64 384 78.34 384 96C384 113.66 369.66 128 352 128H32C14.31 128 0 142.3 0 160C0 177.7 14.31 192 32 192ZM160 320H32C14.31 320 0 334.31 0 352C0 369.69 14.31 384 32 384H160C177.66 384 192 398.34 192 416C192 433.66 177.66 448 160 448H128C110.31 448 96 462.31 96 480C96 497.69 110.31 512 128 512H160C212.94 512 256 468.94 256 416C256 363.06 212.9 320 160 320ZM416 224H32C14.31 224 0 238.3 0 256C0 273.7 14.31 288 32 288H416C433.66 288 448 302.34 448 320C448 337.66 433.66 352 416 352H384C366.31 352 352 366.31 352 384C352 401.69 366.31 416 384 416H416C468.94 416 512 372.94 512 320C512 267.06 468.9 224 416 224Z" fill="white"/>
</svg>
